<?xml version="1.0" encoding="utf-8"?>
<svg width="432" height="235" xmlns="http://www.w3.org/2000/svg" xmlns:bx="https://boxy-svg.com">
  <g transform="matrix(1, 0, 0, 1, -1, 0)">
    <title>background</title>
    <rect fill="#fff" id="canvas_background" height="237" width="434" y="-1" x="-1"/>
    <g display="none" overflow="visible" y="0" x="0" height="100%" width="100%" id="canvasGrid">
      <rect fill="url(#gridpattern)" stroke-width="0" y="0" x="0" height="100%" width="100%"/>
    </g>
    <path d="M 95.922 106.854 L 98.824 111.881 L 93.019 111.881 L 95.922 106.854 Z" style="" transform="matrix(0.866025, -0.5, 0.5, 0.866025, 213.01622, 149.873764)" bx:shape="triangle 93.019 106.854 5.805 5.027 0.5 0 1@f53a0350"/>
    <path d="M 95.869 106.854 L 98.824 111.881 L 93.019 111.881 L 95.869 106.854 Z" style="" transform="matrix(-0.866025, 0.500001, -0.500001, -0.866025, 296.524658, 245.382141)" bx:shape="triangle 93.019 106.854 5.805 5.027 0.491 0 1@13961c55"/>
    <path d="M 95.922 106.854 L 98.824 111.881 L 93.019 111.881 L 95.922 106.854 Z" style="" transform="matrix(0.866025, -0.5, 0.5, 0.866025, 207.01622, 52.821316)" bx:shape="triangle 93.019 106.854 5.805 5.027 0.5 0 1@f53a0350"/>
    <path d="M 95.922 106.854 L 98.824 111.881 L 93.019 111.881 L 95.922 106.854 Z" style="" transform="matrix(-0.866025, 0.500001, -0.500001, -0.866025, 336.524658, 149.382141)" bx:shape="triangle 93.019 106.854 5.805 5.027 0.5 0 1@f53a0350"/>
  </g>
  <g>
    <title>Layer 1</title>
    <ellipse ry="8.5" rx="131" id="svg_1" cy="174.59375" cx="154.23438" stroke-width="1.5" stroke="#000" fill="#fff"/>
    <ellipse ry="8.5" rx="28" id="svg_2" cy="43.64063" cx="162.73438" stroke-width="1.5" stroke="#000" fill="#fff"/>
    <ellipse ry="8.5" rx="28" id="svg_4" cy="167.64063" cx="164.23438" stroke-width="1.5" stroke="#000" fill="#fff"/>
    <line stroke-linecap="null" stroke-linejoin="null" id="svg_5" y2="167.64063" x2="136.23438" y1="44.564" x1="134.845" fill-opacity="null" stroke-opacity="null" stroke-width="1.5" stroke="#000" fill="none"/>
    <line stroke-linecap="null" stroke-linejoin="null" id="svg_7" y2="167.573" x2="192.215" y1="43.319" x1="190.658" fill-opacity="null" stroke-opacity="null" stroke-width="1.5" stroke="#000" fill="none"/>
    <line stroke-linecap="null" stroke-linejoin="null" id="svg_21" y2="212.351" x2="23.312" y1="174.421" x1="23.312" fill-opacity="null" stroke-opacity="null" stroke-width="1.5" stroke="#000" fill="none"/>
    <line stroke-linecap="null" stroke-linejoin="null" id="svg_22" y2="211.004" x2="285.209" y1="174.462" x1="285.209" fill-opacity="null" stroke-opacity="null" stroke-width="1.5" stroke="#000" fill="none"/>
    <line stroke-linecap="null" stroke-linejoin="null" id="svg_23" y2="211.641" x2="285.963" y1="211.641" x1="22.567" fill-opacity="null" stroke-opacity="null" stroke-width="1.5" stroke="#000" fill="none"/>
    <path transform="rotate(90 379.28936767578125,96.29971313476567) " id="svg_26" d="m344.74389,122.20881l34.54546,-51.81819l34.54546,51.81819l-69.09093,0z" fill-opacity="null" stroke-opacity="null" stroke-width="1.5" stroke="#000" fill="none"/>
    <line stroke-linecap="null" stroke-linejoin="null" id="svg_28" y2="173.963" x2="183.378" y1="50.292" x1="181.685" fill-opacity="null" stroke-opacity="null" stroke-dasharray="2,2" stroke-width="1.5" stroke="#000" fill="none"/>
    <line stroke-linecap="null" stroke-linejoin="null" id="svg_30" y2="61.294" x2="353.156" y1="49.92" x1="181.974" fill-opacity="null" stroke-opacity="null" stroke-dasharray="2,2" stroke-width="1.5" stroke="#000" fill="none"/>
    <line stroke-linecap="null" stroke-linejoin="null" id="svg_31" y2="131.82244" x2="353.0071" y1="173.597" x1="184.14" fill-opacity="null" stroke-opacity="null" stroke-dasharray="2,2" stroke-width="1.5" stroke="#000" fill="none"/>
    <line stroke="#000" stroke-linecap="null" stroke-linejoin="null" id="svg_33" y2="173.281" x2="405.047" y1="95.702" x1="405.047" fill-opacity="null" stroke-opacity="null" stroke-width="1.5" fill="none"/>
    <line stroke-linecap="null" stroke-linejoin="null" id="svg_34" y2="210.45881" x2="377.55256" y1="172.73153" x1="404.82528" fill-opacity="null" stroke-opacity="null" stroke-width="1.5" stroke="#000" fill="none"/>
    <line stroke-linecap="null" stroke-linejoin="null" id="svg_36" y2="210.45881" x2="430.73438" y1="172.27699" x1="404.82528" fill-opacity="null" stroke-opacity="null" stroke-width="1.5" stroke="#000" fill="none"/>
    <line stroke-linecap="null" stroke-linejoin="null" id="svg_38" y2="201.82244" x2="404.82528" y1="172.73153" x1="405.27983" fill-opacity="null" stroke-opacity="null" stroke-width="1.5" stroke="#000" fill="none"/>
    <line stroke-linecap="null" stroke-linejoin="null" id="svg_41" y2="197.732" x2="351.431" y1="197.73153" x1="158.91619" fill-opacity="null" stroke-opacity="null" stroke-width="1.5" stroke="#000" fill="none"/>
    <text style="cursor: move; white-space: pre;" text-anchor="start" font-family="Helvetica, Arial, sans-serif" font-size="13" id="svg_47" y="194.64063" x="261.73438" fill-opacity="null" stroke-opacity="null" stroke-width="0" stroke="#000" fill="#000000">R</text>
    <text style="cursor: move; white-space: pre; font-size: 22px;" text-anchor="start" font-family="Helvetica, Arial, sans-serif" font-size="22" id="svg_54" y="146.093" x="19.497" fill-opacity="null" stroke-opacity="null" stroke-width="0" stroke="#000" fill="#000000">\alpha</text>
    <line stroke-dasharray="2,2" stroke-linecap="null" stroke-linejoin="null" id="svg_55" y2="195.45881" x2="353.46165" y1="133.18608" x1="353.0071" fill-opacity="null" stroke-opacity="null" stroke-width="1.5" stroke="#000" fill="none"/>
    <text text-anchor="start" font-family="Helvetica, Arial, sans-serif" font-size="22" id="svg_57" y="20.00426" x="130.73438" fill-opacity="null" stroke-opacity="null" stroke-dasharray="2,2" stroke-width="0" stroke="#000" fill="#000000" style="white-space: pre;">Obiekt</text>
    <text text-anchor="start" font-family="Helvetica, Arial, sans-serif" font-size="22" id="svg_59" y="42.64063" x="354.73438" fill-opacity="null" stroke-opacity="null" stroke-dasharray="2,2" stroke-width="0" stroke="#000" fill="#000000" style="white-space: pre;">Kamera</text>
    <text text-anchor="start" font-family="Helvetica, Arial, sans-serif" font-size="22" id="svg_60" y="230.91335" x="114.73438" fill-opacity="null" stroke-opacity="null" stroke-dasharray="2,2" stroke-width="0" stroke="#000" fill="#000000" style="white-space: pre;">Platforma</text>
    <line stroke-linecap="null" stroke-linejoin="null" id="svg_61" y2="100.00426" x2="343.91619" y1="102.27699" x1="196.64347" fill-opacity="null" stroke-opacity="null" stroke-width="1.5" stroke="#000" fill="none"/>
    <text style="cursor: move; white-space: pre;" text-anchor="start" font-family="Helvetica, Arial, sans-serif" font-size="14" id="svg_67" y="97.64063" x="270.73438" fill-opacity="null" stroke-opacity="null" stroke-width="0" stroke="#000" fill="#000000">d</text>
  </g>
  <path style="stroke: rgb(0, 0, 0); fill: none;" d="M 8.566 133.548 C 18.787 133.548 26.512 142.803 24.686 152.859" transform="matrix(-0.965926, -0.258819, 0.258819, -0.965926, -4.11454, 285.865308)"/>
  <path d="M 95.922 106.854 L 98.824 111.881 L 93.019 111.881 L 95.922 106.854 Z" style="" transform="matrix(0.866025, -0.5, 0.5, 0.866025, -114.645638, 107.453468)" bx:shape="triangle 93.019 106.854 5.805 5.027 0.5 0 1@f53a0350"/>
</svg>