<?xml version="1.0" encoding="utf-8"?>
<svg width="800" height="600" xmlns="http://www.w3.org/2000/svg">
  <g transform="matrix(1, 0, 0, 1, 21.580194, 43.875526)">
    <title>background</title>
    <rect fill="#fff" id="canvas_background" height="602" width="802" y="-1" x="-1"/>
    <g display="none" overflow="visible" y="0" x="0" height="100%" width="100%" id="canvasGrid">
      <rect fill="url(#gridpattern)" stroke-width="0" y="0" x="0" height="100%" width="100%"/>
    </g>
    <line stroke="#000" stroke-linecap="null" stroke-linejoin="null" id="line-1" y2="156.561" x2="421.354" y1="111.561" x1="425.354" fill-opacity="null" stroke-opacity="null" stroke-width="1.5" fill="none"/>
    <line style="stroke: rgb(0, 0, 0); stroke-width: 1.5px;" x1="421.279" y1="156.17" x2="434.779" y2="192.87"/>
  </g>
  <g>
    <title>Layer 1</title>
    <rect id="svg_1" height="20" width="26" y="517.45" x="67.29999" stroke-width="1.5" stroke="#000" fill="#fff"/>
    <line stroke-linecap="undefined" stroke-linejoin="undefined" id="svg_2" y2="528.45" x2="661.32161" y1="528.45" x1="79.023" stroke-width="1.5" stroke="#000" fill="none"/>
    <rect id="svg_3" height="20" width="26" y="519.45" x="648.29999" stroke-width="1.5" stroke="#000" fill="none"/>
    <line stroke-linecap="null" stroke-linejoin="null" id="svg_4" y2="97.4" x2="367" y1="142" x1="311" fill-opacity="null" stroke-opacity="null" stroke-width="1.5" stroke="#000" fill="none"/>
    <line stroke-linecap="null" stroke-linejoin="null" id="svg_5" y2="113" x2="495" y1="156.45" x1="446.29999" fill-opacity="null" stroke-opacity="null" stroke-width="1.5" stroke="#000" fill="none"/>
    <line stroke-linecap="null" stroke-linejoin="null" id="svg_6" y2="113" x2="495" y1="97.543" x1="366.425" fill-opacity="null" stroke-opacity="null" stroke-width="1.5" stroke="#000" fill="none"/>
    <line stroke-linecap="null" stroke-linejoin="null" id="svg_7" y2="230.267" x2="496.24" y1="254" x1="469" fill-opacity="null" stroke-opacity="null" stroke-width="1.5" stroke="#000" fill="none"/>
    <line stroke-linecap="null" stroke-linejoin="null" id="svg_8" y2="230.9" x2="496" y1="112.4" x1="495" fill-opacity="null" stroke-opacity="null" stroke-width="1.5" stroke="#000" fill="none"/>
    <line stroke="#000" stroke-linecap="null" stroke-linejoin="null" id="svg_18" y2="186.45" x2="307" y1="141.45" x1="311.262" fill-opacity="null" stroke-opacity="null" stroke-width="1.5" fill="none"/>
    <line stroke-linecap="null" stroke-linejoin="null" id="svg_22" y2="253.847" x2="469.695" y1="237" x1="342" fill-opacity="null" stroke-opacity="null" stroke-width="1.5" stroke="#000" fill="none"/>
    <line stroke-linecap="null" stroke-linejoin="null" id="svg_23" y2="155.45" x2="447.29999" y1="141.956" x1="311.256" fill-opacity="null" stroke-opacity="null" stroke-width="1.5" stroke="#000" fill="none"/>
    <line stroke-linecap="null" stroke-linejoin="null" id="svg_42" y2="137.669" x2="402.599" y1="194.298" x1="399.155" stroke-opacity="null" stroke="#000" fill="none" style=""/>
    <text text-anchor="start" font-family="Helvetica, Arial, sans-serif" font-size="24" id="svg_43" y="133.746" x="399.875" stroke-opacity="null" stroke-width="0" stroke="#000" fill="#000000" style="white-space: pre; font-size: 24px;">P</text>
    <line stroke-linecap="null" stroke-linejoin="null" id="svg_44" y2="528.6" x2="79.323" y1="193.45" x1="399.29999" stroke-opacity="null" stroke-width="1.5" stroke="#000" fill="none"/>
    <line stroke-linecap="null" stroke-linejoin="null" id="svg_45" y2="193.756" x2="398.721" y1="528.346" x1="660.613" stroke-opacity="null" stroke-width="1.5" stroke="#000" fill="none"/>
    <text text-anchor="start" font-family="Helvetica, Arial, sans-serif" font-size="24" id="svg_50" y="516.455" x="109.031" stroke-opacity="null" stroke-width="0" stroke="#000" fill="#000000" style="white-space: pre; font-size: 24px;">\alpha</text>
    <text text-anchor="start" font-family="Helvetica, Arial, sans-serif" font-size="24" id="svg_51" y="515.864" x="574.788" stroke-opacity="null" stroke-width="0" stroke="#000" fill="#000000" style="white-space: pre; font-size: 24px;">\beta</text>
    <text text-anchor="start" font-family="Helvetica, Arial, sans-serif" font-size="24" id="svg_52" y="555.45" x="334.29999" stroke-opacity="null" stroke-width="0" stroke="#000" fill="#000000" style="white-space: pre;">B</text>
    <text text-anchor="start" font-family="Helvetica, Arial, sans-serif" font-size="24" id="svg_53" y="331.45" x="511.29999" stroke-opacity="null" stroke-width="0" stroke="#000" fill="#000000" style="white-space: pre;">R</text>
    <text text-anchor="start" font-family="Helvetica, Arial, sans-serif" font-size="24" id="svg_54" y="563.45" x="68.29999" stroke-opacity="null" stroke-width="0" stroke="#000" fill="#000000" style="white-space: pre;">Projektor</text>
    <text text-anchor="start" font-family="Helvetica, Arial, sans-serif" font-size="24" id="svg_55" y="565.45" x="558.29999" stroke-width="0" fill="#fff" style="white-space: pre;">Kamera</text>
    <text text-anchor="start" font-family="Helvetica, Arial, sans-serif" font-size="24" id="svg_56" y="564.2" x="567.29999" stroke-width="0" fill="#000000" style="white-space: pre;">Kamera</text>
    <line style="stroke: rgb(0, 0, 0); stroke-width: 1.5px;" x1="307" y1="186" x2="320.5" y2="222.7"/>
    <line style="stroke: rgb(0, 0, 0); stroke-width: 1.5px;" x1="320" y1="222" x2="343" y2="237.471"/>
    <circle style="fill: rgb(66, 66, 66);" cx="398.83" cy="194.342" r="3.515"/>
  </g>
  <path style="stroke: rgb(0, 0, 0); fill: none;" d="M 135.896 469.232 C 166.796 469.232 193.07 499.736 182.025 528.594"/>
  <path style="paint-order: fill; stroke: rgb(0, 0, 0); fill: none;" d="M 570.182 468.188 C 601.082 468.188 622.389 499.158 611.344 528.016" transform="matrix(-0.325568, -0.945519, 0.945519, -0.325568, 314.088812, 1220.241433)"/>
  <path style="stroke: rgb(0, 0, 0); fill: none;" d="M 326.073 143.724 C 317.438 144.891 319.903 226.823 326.073 225.989"/>
  <path style="stroke: rgb(0, 0, 0); fill: none;" d="M 337.243 144.781 C 330.899 148.197 333.236 235.865 337.243 233.708"/>
  <path style="stroke: rgb(0, 0, 0); fill: none;" d="M 352.186 146.592 C 343.785 149.626 346.183 240.146 352.186 237.978"/>
  <path style="stroke: rgb(0, 0, 0); fill: none;" d="M 367.733 148.253 C 360.643 151.576 361.971 243.481 367.733 240.78"/>
  <path style="stroke: rgb(0, 0, 0); fill: none;" d="M 390.223 150.584 C 375.795 179.57 387.207 249.272 390.223 243.213"/>
  <path style="stroke: rgb(0, 0, 0); fill: none;" d="M 434.658 154.983 C 426.049 163.592 426.562 257 434.577 248.985"/>
  <path style="stroke: rgb(0, 0, 0); fill: none;" d="M 412.08 152.402 C 406.221 154.799 405.58 249.096 412.323 246.337"/>
  <line style="stroke: rgb(0, 0, 0); stroke-width: 1.5px;" x1="456.249" y1="236.483" x2="469.717" y2="254.111"/>
</svg>