<!DOCTYPE svg PUBLIC "-//W3C//DTD SVG 20010904//EN" "http://www.w3.org/TR/2001/REC-SVG-20010904/DTD/svg10.dtd">
<svg version="1.0" xmlns="http://www.w3.org/2000/svg" width="361px" height="246px" viewBox="0 0 3610 2460" preserveAspectRatio="xMidYMid meet">
<g id="layer101" fill="#0d0d0d" stroke="none">
<path d="M0 1230 l0 -1230 1805 0 1805 0 0 1230 0 1230 -1805 0 -1805 0 0 -1230z"/>
</g>
<g id="layer102" fill="#5b5b5b" stroke="none">
<path d="M0 1230 l0 -1230 1805 0 1805 0 0 1230 0 1230 -1805 0 -1805 0 0 -1230z m1017 1083 c-3 -10 -5 -4 -5 12 0 17 2 24 5 18 2 -7 2 -21 0 -30z m40 0 c-3 -10 -5 -4 -5 12 0 17 2 24 5 18 2 -7 2 -21 0 -30z m30 -25 c-2 -13 -4 -3 -4 22 0 25 2 35 4 23 2 -13 2 -33 0 -45z m24 39 c-10 -9 -11 -8 -5 6 3 10 9 15 12 12 3 -3 0 -11 -7 -18z m46 -39 c-2 -13 -4 -3 -4 22 0 25 2 35 4 23 2 -13 2 -33 0 -45z m70 25 c-3 -10 -5 -4 -5 12 0 17 2 24 5 18 2 -7 2 -21 0 -30z m36 17 c-3 -12 -8 -19 -11 -16 -5 6 5 36 12 36 2 0 2 -9 -1 -20z m34 -42 c-2 -13 -4 -3 -4 22 0 25 2 35 4 23 2 -13 2 -33 0 -45z m430 45 c-4 -3 -7 0 -7 7 0 7 3 10 7 7 3 -4 3 -10 0 -14z m70 -20 c-3 -10 -5 -4 -5 12 0 17 2 24 5 18 2 -7 2 -21 0 -30z m46 17 c-3 -12 -8 -19 -11 -16 -5 6 5 36 12 36 2 0 2 -9 -1 -20z m187 16 c0 -3 -4 -8 -10 -11 -5 -3 -10 -1 -10 4 0 6 5 11 10 11 6 0 10 -2 10 -4z m123 -16 c-3 -12 -8 -19 -11 -16 -5 6 5 36 12 36 2 0 2 -9 -1 -20z m-646 -12 c-3 -8 -6 -5 -6 6 -1 11 2 17 5 13 3 -3 4 -12 1 -19z m374 -11 c-10 -9 -11 -8 -5 6 3 10 9 15 12 12 3 -3 0 -11 -7 -18z m36 -4 c-4 -3 -7 0 -7 7 0 7 3 10 7 7 3 -4 3 -10 0 -14z m143 13 c0 -3 -4 -8 -10 -11 -5 -3 -10 -1 -10 4 0 6 5 11 10 11 6 0 10 -2 10 -4z m17 -13 c-4 -3 -7 0 -7 7 0 7 3 10 7 7 3 -4 3 -10 0 -14z m40 0 c-4 -3 -7 0 -7 7 0 7 3 10 7 7 3 -4 3 -10 0 -14z m-590 -135 c-2 -13 -4 -3 -4 22 0 25 2 35 4 23 2 -13 2 -33 0 -45z m230 25 c-4 -3 -7 0 -7 7 0 7 3 10 7 7 3 -4 3 -10 0 -14z m40 -5 c-3 -8 -6 -5 -6 6 -1 11 2 17 5 13 3 -3 4 -12 1 -19z m73 -19 c0 -16 -4 -29 -8 -29 -5 0 -9 16 -9 35 0 19 4 32 9 29 4 -3 8 -18 8 -35z m-852 23 c16 12 16 11 0 -7 -9 -11 -18 -31 -21 -45 -2 -14 -5 -6 -5 20 0 25 2 39 5 32 4 -10 8 -10 21 0z m49 -29 c-3 -10 -5 -4 -5 12 0 17 2 24 5 18 2 -7 2 -21 0 -30z m36 22 c-3 -9 -8 -14 -10 -11 -3 3 -2 9 2 15 9 16 15 13 8 -4z m64 -22 c-3 -10 -5 -4 -5 12 0 17 2 24 5 18 2 -7 2 -21 0 -30z m50 0 c-3 -10 -5 -4 -5 12 0 17 2 24 5 18 2 -7 2 -21 0 -30z m40 0 c-3 -10 -5 -4 -5 12 0 17 2 24 5 18 2 -7 2 -21 0 -30z m340 0 c-3 -10 -5 -4 -5 12 0 17 2 24 5 18 2 -7 2 -21 0 -30z m58 27 c3 -5 4 -10 1 -10 -3 0 -8 5 -11 10 -3 6 -4 10 -1 10 3 0 8 -4 11 -10z m52 3 c-4 -3 -10 -3 -14 0 -3 4 0 7 7 7 7 0 10 -3 7 -7z m125 -23 c-2 -16 -7 -30 -11 -30 -4 0 -6 14 -3 30 2 17 7 30 11 30 4 0 6 -13 3 -30z m90 23 c-6 -2 -10 -9 -6 -14 3 -5 0 -9 -5 -9 -12 0 -14 13 -4 23 3 4 11 7 17 6 6 0 5 -3 -2 -6z m34 -9 c-9 -8 -16 -20 -16 -26 0 -6 -3 -9 -6 -6 -8 9 14 48 27 48 6 0 3 -7 -5 -16z m181 -21 c-3 -10 -5 -4 -5 12 0 17 2 24 5 18 2 -7 2 -21 0 -30z m70 0 c-3 -10 -5 -4 -5 12 0 17 2 24 5 18 2 -7 2 -21 0 -30z m-427 4 c0 -5 4 -6 8 -3 5 3 9 -1 9 -9 0 -8 -7 -15 -14 -15 -8 0 -11 5 -7 11 5 8 -1 10 -19 7 -15 -3 -24 -2 -22 3 3 4 -3 10 -12 12 -10 3 -1 4 19 3 21 0 38 -5 38 -9z m-643 -14 c-4 -3 -7 0 -7 7 0 7 3 10 7 7 3 -4 3 -10 0 -14z m263 13 c0 -3 -5 -8 -12 -12 -7 -4 -8 -3 -4 4 7 12 16 16 16 8z m167 -13 c-4 -3 -7 0 -7 7 0 7 3 10 7 7 3 -4 3 -10 0 -14z m108 7 c3 -5 4 -10 1 -10 -3 0 -8 5 -11 10 -3 6 -4 10 -1 10 3 0 8 -4 11 -10z m392 -7 c-4 -3 -7 0 -7 7 0 7 3 10 7 7 3 -4 3 -10 0 -14z m-167 3 c0 -3 -4 -8 -10 -11 -5 -3 -10 -1 -10 4 0 6 5 11 10 11 6 0 10 -2 10 -4z m39 -65 c63 -11 119 -17 125 -14 5 3 6 1 2 -5 -4 -7 -24 -12 -44 -12 -35 0 -141 -14 -189 -25 -21 -5 -23 -2 -23 35 0 22 3 40 8 40 4 0 59 -9 121 -19z m588 -18 c-4 -3 -10 -3 -14 0 -3 4 0 7 7 7 7 0 10 -3 7 -7z m121 0 c-10 -2 -18 -12 -18 -20 0 -9 -3 -14 -6 -10 -12 11 5 37 23 36 17 -1 17 -2 1 -6z m75 0 c-7 -2 -19 -2 -25 0 -7 3 -2 5 12 5 14 0 19 -2 13 -5z m44 -60 c-2 -16 -4 -5 -4 22 0 28 2 40 4 28 2 -13 2 -35 0 -50z m53 63 c0 -3 -5 -8 -12 -12 -7 -4 -8 -3 -4 4 7 12 16 16 16 8z m203 -47 c-6 -6 -7 3 -4 23 4 28 6 29 9 9 2 -13 0 -27 -5 -32z m79 24 c-3 -16 -7 -22 -10 -15 -4 13 4 42 11 42 2 0 2 -12 -1 -27z m181 9 c-21 -22 -26 -21 -17 2 3 9 12 16 20 16 11 0 10 -4 -3 -18z m-96 -9 c-4 -3 -7 0 -7 7 0 7 3 10 7 7 3 -4 3 -10 0 -14z m-690 -10 c-4 -3 -7 0 -7 7 0 7 3 10 7 7 3 -4 3 -10 0 -14z m644 -6 c-10 -9 -11 -8 -5 6 3 10 9 15 12 12 3 -3 0 -11 -7 -18z m-741 9 c0 -3 -5 -8 -12 -12 -7 -4 -8 -3 -4 4 7 12 16 16 16 8z m195 -6 c3 -5 4 -10 1 -10 -3 0 -8 5 -11 10 -3 6 -4 10 -1 10 3 0 8 -4 11 -10z m622 -7 c-4 -3 -7 0 -7 7 0 7 3 10 7 7 3 -4 3 -10 0 -14z m-547 3 c0 -3 -5 -8 -12 -12 -7 -4 -8 -3 -4 4 7 12 16 16 16 8z m640 0 c0 -3 -5 -8 -12 -12 -7 -4 -8 -3 -4 4 7 12 16 16 16 8z m-823 -13 c-4 -3 -10 -3 -14 0 -3 4 0 7 7 7 7 0 10 -3 7 -7z m-132 -160 c72 -64 131 -119 133 -122 1 -4 -6 -11 -16 -17 -16 -10 -33 2 -128 87 l-109 98 -647 1 -648 0 0 35 0 35 643 0 642 0 130 -117z m-1845 -27 c0 -2 -8 -10 -17 -17 -16 -13 -17 -12 -4 4 13 16 21 21 21 13z m27 -13 c-4 -3 -7 0 -7 7 0 7 3 10 7 7 3 -4 3 -10 0 -14z m70 -20 c-3 -10 -5 -4 -5 12 0 17 2 24 5 18 2 -7 2 -21 0 -30z m40 0 c-3 -10 -5 -4 -5 12 0 17 2 24 5 18 2 -7 2 -21 0 -30z m40 0 c-3 -10 -5 -4 -5 12 0 17 2 24 5 18 2 -7 2 -21 0 -30z m36 30 c-7 -2 -13 -12 -13 -20 0 -9 -3 -14 -6 -10 -10 10 4 37 18 36 10 0 10 -2 1 -6z m54 -30 c-3 -10 -5 -4 -5 12 0 17 2 24 5 18 2 -7 2 -21 0 -30z m80 0 c-3 -10 -5 -4 -5 12 0 17 2 24 5 18 2 -7 2 -21 0 -30z m-110 -10 c-4 -3 -7 0 -7 7 0 7 3 10 7 7 3 -4 3 -10 0 -14z m1813 -31 c0 -4 -10 -13 -22 -21 -23 -14 -23 -14 -4 8 20 22 26 25 26 13z m-2380 -52 c17 -22 28 -40 23 -40 -8 0 -68 80 -59 80 2 0 19 -18 36 -40z m159 -212 c1 -14 -7 -18 -40 -18 -40 0 -41 1 -35 28 3 15 13 68 23 117 l17 90 17 -100 c10 -55 18 -108 18 -117z m2064 185 c-7 -2 -21 -2 -30 0 -10 3 -4 5 12 5 17 0 24 -2 18 -5z m54 -19 c-3 -3 -12 -4 -19 -1 -8 3 -5 6 6 6 11 1 17 -2 13 -5z m70 -21 c-4 -3 -10 -3 -14 0 -3 4 0 7 7 7 7 0 10 -3 7 -7z m20 -40 c-3 -10 -5 -2 -5 17 0 19 2 27 5 18 2 -10 2 -26 0 -35z m113 43 c0 -2 -7 -7 -16 -10 -8 -3 -12 -2 -9 4 6 10 25 14 25 6z m37 -43 c-3 -10 -5 -4 -5 12 0 17 2 24 5 18 2 -7 2 -21 0 -30z m160 0 c-3 -10 -5 -4 -5 12 0 17 2 24 5 18 2 -7 2 -21 0 -30z m40 0 c-3 -10 -5 -4 -5 12 0 17 2 24 5 18 2 -7 2 -21 0 -30z m70 5 c-3 -7 -5 -2 -5 12 0 14 2 19 5 13 2 -7 2 -19 0 -25z m90 15 c-4 -3 -7 0 -7 7 0 7 3 10 7 7 3 -4 3 -10 0 -14z m96 -13 c-3 -11 -9 -20 -15 -20 -5 0 -4 9 2 20 6 11 12 20 14 20 2 0 2 -9 -1 -20z m-566 3 c-4 -3 -10 -3 -14 0 -3 4 0 7 7 7 7 0 10 -3 7 -7z m-70 -20 c-4 -3 -7 0 -7 7 0 7 3 10 7 7 3 -4 3 -10 0 -14z m530 0 c-4 -3 -7 0 -7 7 0 7 3 10 7 7 3 -4 3 -10 0 -14z m-2690 -470 c-4 -3 -10 -3 -14 0 -3 4 0 7 7 7 7 0 10 -3 7 -7z m550 1 c-3 -3 -12 -4 -19 -1 -8 3 -5 6 6 6 11 1 17 -2 13 -5z m100 0 c-3 -3 -12 -4 -19 -1 -8 3 -5 6 6 6 11 1 17 -2 13 -5z m310 0 c-3 -3 -12 -4 -19 -1 -8 3 -5 6 6 6 11 1 17 -2 13 -5z m-687 -87 c0 -2 -10 -12 -22 -23 l-23 -19 19 23 c18 21 26 27 26 19z m480 -21 c0 -3 -5 -8 -12 -12 -7 -4 -8 -3 -4 4 7 12 16 16 16 8z m57 -43 c-4 -3 -7 0 -7 7 0 7 3 10 7 7 3 -4 3 -10 0 -14z m20 0 c-4 -3 -7 0 -7 7 0 7 3 10 7 7 3 -4 3 -10 0 -14z m283 -508 l0 -235 -335 0 -335 0 0 228 c0 126 3 232 7 235 3 4 154 7 335 7 l328 0 0 -235z m-1163 183 c-3 -8 -6 -5 -6 6 -1 11 2 17 5 13 3 -3 4 -12 1 -19z m124 -115 c13 -16 12 -17 -3 -4 -17 13 -22 21 -14 21 2 0 10 -8 17 -17z m2824 -184 c50 -7 96 -12 103 -12 6 0 12 -3 12 -7 0 -3 -48 -12 -107 -19 -60 -8 -113 -16 -120 -18 -13 -5 -21 22 -15 55 3 15 10 21 21 18 9 -2 57 -10 106 -17z m-3075 -106 c0 -20 -39 -75 -40 -57 0 6 7 17 16 25 8 7 13 21 11 31 -3 10 -1 18 4 18 5 0 9 -8 9 -17z m3240 10 c-1 -13 -59 -79 -60 -67 0 6 9 19 20 29 11 10 20 24 20 32 0 7 5 13 10 13 6 0 10 -3 10 -7z m-2373 -115 c-2 -13 -4 -3 -4 22 0 25 2 35 4 23 2 -13 2 -33 0 -45z m70 25 c-3 -10 -5 -4 -5 12 0 17 2 24 5 18 2 -7 2 -21 0 -30z m53 33 c0 -3 -4 -8 -10 -11 -5 -3 -10 -1 -10 4 0 6 5 11 10 11 6 0 10 -2 10 -4z m90 0 c0 -2 -8 -10 -17 -17 -16 -13 -17 -12 -4 4 13 16 21 21 21 13z m-243 -28 c-3 -8 -6 -5 -6 6 -1 11 2 17 5 13 3 -3 4 -12 1 -19z m70 -10 c-3 -7 -5 -2 -5 12 0 14 2 19 5 13 2 -7 2 -19 0 -25z m113 8 c0 -3 -4 -8 -10 -11 -5 -3 -10 -1 -10 4 0 6 5 11 10 11 6 0 10 -2 10 -4z"/>
<path d="M810 465 l0 -225 325 0 325 0 0 225 0 225 -325 0 -325 0 0 -225z m218 34 c-3 -8 -7 -3 -11 10 -4 17 -3 21 5 13 5 -5 8 -16 6 -23z m-41 -11 c-3 -7 -5 -2 -5 12 0 14 2 19 5 13 2 -7 2 -19 0 -25z"/>
</g>
<g id="layer103" fill="#a8a8a8" stroke="none">
<path d="M0 1230 l0 -1230 1805 0 1805 0 0 1230 0 1230 -1805 0 -1805 0 0 -1230z m1446 1110 c-1 -22 -4 -40 -8 -40 -5 0 -8 18 -8 40 0 22 4 40 8 40 5 0 8 -18 8 -40z m664 36 c0 -2 -11 -6 -25 -8 -13 -3 -22 -1 -19 3 5 9 44 13 44 5z m-1093 -63 c-3 -10 -5 -4 -5 12 0 17 2 24 5 18 2 -7 2 -21 0 -30z m43 12 c0 -14 -2 -25 -4 -25 -2 0 -6 11 -8 25 -3 14 -1 25 3 25 5 0 9 -11 9 -25z m47 13 c2 6 10 12 16 12 7 -1 2 -9 -10 -19 -12 -10 -23 -31 -26 -47 -2 -18 -4 -11 -5 21 -1 38 1 46 9 35 8 -11 12 -12 16 -2z m50 -55 c-2 -16 -4 -5 -4 22 0 28 2 40 4 28 2 -13 2 -35 0 -50z m43 57 c0 -5 -4 -10 -10 -10 -5 0 -10 5 -10 10 0 6 5 10 10 10 6 0 10 -4 10 -10z m21 -43 c-8 -8 -15 -7 -23 2 -11 10 -10 11 5 6 13 -6 17 -1 18 21 2 26 2 26 6 5 3 -13 0 -28 -6 -34z m41 28 c-2 -14 -6 -25 -8 -25 -2 0 -4 11 -4 25 0 14 4 25 9 25 4 0 6 -11 3 -25z m35 -42 c-2 -16 -4 -5 -4 22 0 28 2 40 4 28 2 -13 2 -35 0 -50z m43 42 c0 -14 -4 -25 -10 -25 -11 0 -14 33 -3 43 11 11 13 8 13 -18z m40 0 c0 -14 -4 -25 -10 -25 -5 0 -10 11 -10 25 0 14 5 25 10 25 6 0 10 -11 10 -25z m105 -14 c-3 -12 -11 -21 -17 -21 -6 0 -6 6 2 15 7 8 9 23 6 32 -6 14 -4 15 4 7 7 -7 9 -21 5 -33z m27 12 c-3 -16 -7 -22 -10 -15 -4 13 4 42 11 42 2 0 2 -12 -1 -27z m48 3 c0 -8 -8 -20 -17 -27 -16 -13 -17 -12 -4 3 7 10 11 25 7 33 -3 9 -2 13 4 10 6 -3 10 -12 10 -19z m25 -1 c0 -14 -3 -25 -7 -25 -5 0 -8 11 -8 25 0 14 3 25 8 25 4 0 7 -11 7 -25z m38 -27 c-10 -20 -19 -5 -14 25 4 31 5 31 11 7 4 -14 5 -28 3 -32z m37 22 c0 -16 -4 -30 -8 -30 -5 0 -7 14 -4 30 2 17 6 30 8 30 2 0 4 -13 4 -30z m40 5 c0 -14 -2 -25 -4 -25 -2 0 -6 11 -8 25 -3 14 -1 25 3 25 5 0 9 -11 9 -25z m34 9 c3 -8 2 -12 -4 -9 -6 3 -10 10 -10 16 0 14 7 11 14 -7z m36 -8 c0 -14 -4 -27 -10 -31 -5 -3 -8 7 -7 25 2 36 17 41 17 6z m27 -23 c-3 -10 -5 -2 -5 17 0 19 2 27 5 18 2 -10 2 -26 0 -35z m45 20 c-3 -16 -7 -22 -10 -15 -4 13 4 42 11 42 2 0 2 -12 -1 -27z m48 3 c0 -8 -8 -20 -17 -27 -16 -13 -17 -12 -4 3 7 10 11 25 7 33 -3 9 -2 13 4 10 6 -3 10 -12 10 -19z m30 -13 c-11 -17 -11 -17 -6 0 3 10 6 24 7 30 0 9 2 9 5 0 3 -7 0 -20 -6 -30z m45 8 c-3 -12 -10 -21 -15 -21 -5 0 -4 11 2 25 13 29 23 26 13 -4z m58 18 c-6 -6 -9 -19 -6 -28 4 -13 2 -13 -7 2 -12 19 -6 37 13 37 8 0 8 -3 0 -11z m32 1 c3 -5 4 -10 1 -10 -3 0 -8 5 -11 10 -3 6 -4 10 -1 10 3 0 8 -4 11 -10z m97 -17 c-3 -16 -7 -22 -10 -15 -4 13 4 42 11 42 2 0 2 -12 -1 -27z m48 3 c0 -8 -8 -20 -17 -27 -16 -13 -17 -12 -4 3 7 10 11 25 7 33 -3 9 -2 13 4 10 6 -3 10 -12 10 -19z m-116 -11 c-4 -8 -8 -15 -10 -15 -2 0 -4 7 -4 15 0 8 4 15 10 15 5 0 7 -7 4 -15z m36 -6 c0 -5 -4 -9 -8 -9 -5 0 -9 7 -9 15 0 8 4 12 9 9 4 -3 8 -9 8 -15z m-62 -1 c-2 -6 -10 -14 -16 -16 -7 -2 -10 2 -6 12 7 18 28 22 22 4z m-323 -8 c3 -5 4 -10 1 -10 -3 0 -8 5 -11 10 -3 6 -4 10 -1 10 3 0 8 -4 11 -10z m-201 -114 c1 -20 -2 -36 -6 -36 -5 0 -8 19 -8 42 0 50 11 45 14 -6z m-416 13 c-10 -5 -18 -18 -19 -27 0 -11 -2 -12 -6 -4 -6 15 14 42 31 42 6 0 3 -5 -6 -11z m141 -24 c-1 -28 -1 -28 -8 -6 -10 36 -31 38 -32 4 -1 -18 -3 -21 -6 -10 -7 28 4 46 26 44 17 -1 21 -8 20 -32z m111 20 c-7 -9 -15 -13 -17 -11 -7 7 7 26 19 26 6 0 6 -6 -2 -15z m204 -28 c-10 -26 -19 -20 -19 13 0 24 2 27 13 16 7 -7 10 -20 6 -29z m156 37 c0 -4 -7 -12 -15 -18 -12 -9 -9 -11 17 -11 42 1 66 14 47 26 -11 7 -11 9 3 9 12 0 16 -9 16 -35 0 -34 -19 -48 -33 -25 -4 6 -11 7 -17 4 -6 -4 -14 0 -19 7 -8 12 -10 12 -18 0 -7 -11 -10 -9 -16 9 -5 15 -2 25 6 31 17 10 29 11 29 3z m30 -4 c0 -5 -5 -10 -11 -10 -5 0 -7 5 -4 10 3 6 8 10 11 10 2 0 4 -4 4 -10z m110 -25 c0 -19 -4 -35 -10 -35 -5 0 -9 3 -9 8 1 4 1 17 0 30 -1 31 -21 18 -21 -14 0 -13 -4 -24 -9 -24 -8 0 -6 21 5 58 2 6 13 12 24 12 16 0 20 -6 20 -35z m51 6 c-11 -19 -47 -52 -40 -36 20 44 33 64 40 59 5 -3 5 -13 0 -23z m82 14 c-3 -9 -8 -14 -10 -11 -3 3 -2 9 2 15 9 16 15 13 8 -4z m37 -15 c0 -16 -5 -30 -10 -30 -6 0 -9 12 -6 28 5 33 5 32 11 32 3 0 5 -13 5 -30z m145 20 c-3 -5 -11 -10 -16 -10 -6 0 -7 5 -4 10 3 6 11 10 16 10 6 0 7 -4 4 -10z m22 -37 c-3 -10 -5 -2 -5 17 0 19 2 27 5 18 2 -10 2 -26 0 -35z m-1189 29 c14 11 14 9 0 -8 -10 -11 -18 -30 -18 -42 0 -12 -3 -22 -8 -22 -4 0 -6 19 -3 43 2 23 6 36 8 29 4 -10 8 -10 21 0z m52 -17 c0 -14 -4 -25 -9 -25 -4 0 -6 11 -3 25 2 14 6 25 8 25 2 0 4 -11 4 -25z m114 -17 c7 -5 5 -8 -6 -8 -13 0 -18 7 -17 28 1 21 2 22 6 7 3 -11 10 -23 17 -27z m108 17 c3 -16 1 -25 -7 -25 -8 0 -10 9 -7 25 2 14 6 25 7 25 1 0 5 -11 7 -25z m30 -17 c-6 -6 -7 0 -4 19 5 21 7 23 10 9 2 -10 0 -22 -6 -28z m114 33 c9 8 14 8 14 1 0 -6 -6 -15 -14 -19 -8 -4 -16 -19 -19 -33 -2 -14 -5 -6 -5 20 0 25 2 39 5 32 4 -10 8 -10 19 -1z m166 -16 c3 -14 1 -25 -3 -25 -5 0 -9 11 -9 25 0 14 2 25 4 25 2 0 6 -11 8 -25z m78 -17 c0 -14 -19 1 -31 25 -12 22 -12 22 10 3 11 -11 21 -23 21 -28z m276 26 c-9 -8 -16 -20 -16 -26 0 -6 -3 -9 -6 -6 -8 9 14 48 27 48 6 0 3 -7 -5 -16z m116 -9 c3 -16 1 -25 -7 -25 -8 0 -10 9 -7 25 2 14 6 25 7 25 1 0 5 -11 7 -25z m30 -17 c-6 -6 -7 0 -4 19 5 21 7 23 10 9 2 -10 0 -22 -6 -28z m35 5 c-3 -10 -5 -4 -5 12 0 17 2 24 5 18 2 -7 2 -21 0 -30z m-997 -3 c0 -5 -5 -10 -11 -10 -5 0 -7 5 -4 10 3 6 8 10 11 10 2 0 4 -4 4 -10z m217 -7 c-4 -3 -7 0 -7 7 0 7 3 10 7 7 3 -4 3 -10 0 -14z m43 7 c0 -5 -4 -10 -10 -10 -5 0 -10 5 -10 10 0 6 5 10 10 10 6 0 10 -4 10 -10z m513 -65 c50 -8 106 -16 124 -17 43 -3 31 -18 -15 -18 -35 0 -141 -14 -189 -25 -21 -5 -23 -2 -23 35 0 22 2 40 5 40 3 0 47 -7 98 -15z m547 -30 c0 -25 -4 -45 -10 -45 -5 0 -10 20 -10 45 0 25 5 45 10 45 6 0 10 -20 10 -45z m260 41 c0 -2 -9 -6 -20 -9 -11 -3 -18 -1 -14 4 5 9 34 13 34 5z m-323 -33 c-4 -3 -10 -3 -14 0 -3 4 0 7 7 7 7 0 10 -3 7 -7z m7 -28 c-26 -18 -30 -11 -7 12 10 10 20 15 22 10 1 -4 -5 -14 -15 -22z m94 -1 c-1 -9 -10 -20 -18 -22 -12 -4 -13 -3 -2 10 7 9 9 24 6 34 -5 15 -4 16 5 8 7 -7 11 -20 9 -30z m32 12 c0 -13 6 -27 13 -29 6 -3 2 -6 -10 -6 -19 -1 -23 4 -23 29 0 17 5 30 10 30 6 0 10 -11 10 -24z m61 -8 l23 -33 -27 24 c-15 14 -27 28 -27 33 0 15 8 8 31 -24z m74 22 c3 -5 0 -7 -8 -4 -8 3 -18 1 -22 -5 -3 -7 3 -11 15 -11 24 0 23 -21 -1 -28 -11 -3 -11 -1 1 8 12 10 11 11 -7 7 -17 -4 -23 -1 -23 12 0 29 31 44 45 21z m68 3 c-7 -2 -21 -2 -30 0 -10 3 -4 5 12 5 17 0 24 -2 18 -5z m39 -30 c-5 -59 -10 -63 -11 -10 -1 26 3 47 7 47 4 0 6 -17 4 -37z m43 7 c0 -25 -2 -27 -14 -15 -12 11 -12 17 -1 29 16 20 15 21 15 -14z m35 0 c0 -10 -3 -21 -7 -23 -5 -3 -8 8 -8 23 0 15 3 26 8 23 4 -2 7 -13 7 -23z m69 -17 c-1 -53 -6 -49 -11 10 -2 20 0 37 4 37 4 0 8 -21 7 -47z m41 17 c0 -16 -3 -30 -7 -30 -5 0 -8 14 -8 30 0 17 3 30 8 30 4 0 7 -13 7 -30z m35 5 c-2 -37 -15 -43 -15 -7 0 18 4 32 8 32 4 0 7 -11 7 -25z m37 -5 c-2 -16 -7 -30 -11 -30 -4 0 -6 14 -3 30 2 17 7 30 11 30 4 0 6 -13 3 -30z m38 0 c0 -16 -3 -30 -7 -30 -5 0 -8 14 -8 30 0 17 3 30 8 30 4 0 7 -13 7 -30z m35 1 c0 -16 -3 -27 -7 -24 -13 7 -7 53 6 53 1 0 1 -13 1 -29z m79 -5 c-3 -14 -10 -26 -14 -26 -5 0 -3 13 3 30 13 35 21 33 11 -4z m40 0 c-3 -14 -10 -26 -14 -26 -5 0 -3 13 3 30 13 35 21 33 11 -4z m66 22 l-25 -11 23 -6 c25 -6 31 -23 11 -30 -7 -2 -9 1 -4 9 6 10 2 12 -13 8 -16 -5 -22 -2 -22 11 0 23 9 31 34 30 19 0 19 -1 -4 -11z m-590 -30 c0 -16 -3 -19 -11 -11 -6 6 -8 16 -5 22 11 17 16 13 16 -11z m32 -10 c-9 -9 -12 -7 -12 12 0 19 3 21 12 12 9 -9 9 -15 0 -24z m418 18 c0 -8 -7 -16 -15 -20 -12 -4 -13 -2 -2 14 14 24 17 25 17 6z m-795 -183 c72 -64 131 -119 133 -122 1 -4 -6 -11 -16 -17 -16 -10 -33 2 -128 87 l-109 98 -647 1 -648 0 0 35 0 35 643 0 642 0 130 -117z m-1875 -34 c0 -8 6 -7 17 2 16 13 16 13 0 -11 -9 -13 -17 -32 -17 -42 0 -9 -3 -19 -7 -21 -5 -3 -8 15 -8 39 0 24 3 44 8 44 4 0 7 -5 7 -11z m67 -4 c0 -8 -4 -12 -9 -9 -4 3 -8 9 -8 15 0 5 4 9 8 9 5 0 9 -7 9 -15z m35 -10 c-7 -37 -22 -41 -19 -5 1 16 7 30 13 30 7 0 9 -10 6 -25z m25 -22 c-3 -10 -5 -2 -5 17 0 19 2 27 5 18 2 -10 2 -26 0 -35z m39 1 c-3 -8 -11 -14 -18 -13 -10 0 -10 2 0 6 6 2 13 17 13 31 1 18 3 21 6 9 3 -10 2 -25 -1 -33z m40 0 c-3 -8 -11 -14 -18 -14 -9 0 -9 3 0 12 7 7 13 21 13 33 1 17 2 18 6 2 3 -10 2 -25 -1 -33z m44 34 l-25 -11 29 -6 c28 -6 28 -7 11 -21 -11 -9 -16 -10 -11 -2 5 8 0 12 -13 12 -12 0 -21 6 -21 13 0 19 10 27 34 26 19 0 19 -1 -4 -11z m61 -34 c5 -7 3 -11 -6 -11 -10 0 -15 10 -14 31 1 21 3 25 6 11 3 -11 9 -25 14 -31z m39 36 c0 -5 -4 -10 -10 -10 -5 0 -10 5 -10 10 0 6 5 10 10 10 6 0 10 -4 10 -10z m43 3 c-7 -2 -13 -13 -13 -23 0 -24 -18 -36 -33 -21 -9 9 -7 10 7 5 16 -6 18 -4 14 19 -4 23 -2 27 16 26 11 0 15 -3 9 -6z m-328 -43 c3 -5 4 -10 1 -10 -3 0 -8 5 -11 10 -3 6 -4 10 -1 10 3 0 8 -4 11 -10z m2015 -28 c0 -4 -10 -13 -22 -21 -23 -14 -23 -14 -4 8 20 22 26 25 26 13z m-2369 -64 c17 -23 18 -28 5 -28 -9 0 -16 6 -16 13 0 8 -9 22 -20 32 -11 10 -20 22 -20 28 0 13 27 -10 51 -45z m148 -200 c1 -14 -7 -18 -40 -18 -40 0 -41 1 -35 28 3 15 13 68 23 117 l17 90 17 -100 c10 -55 18 -108 18 -117z m2064 185 c-7 -2 -21 -2 -30 0 -10 3 -4 5 12 5 17 0 24 -2 18 -5z m-2246 -10 c-4 -3 -10 -3 -14 0 -3 4 0 7 7 7 7 0 10 -3 7 -7z m1001 -973 c114 1 231 1 260 1 l52 -1 0 -235 0 -235 -335 0 -335 0 0 235 0 235 70 0 70 0 2 493 3 492 2 -493 3 -493 208 1z m1299 964 c-3 -3 -12 -4 -19 -1 -8 3 -5 6 6 6 11 1 17 -2 13 -5z m25 -51 c-5 -59 -10 -63 -11 -10 -1 26 3 47 7 47 4 0 6 -17 4 -37z m42 22 c-4 -8 -8 -15 -10 -15 -2 0 -4 7 -4 15 0 8 4 15 10 15 5 0 7 -7 4 -15z m44 8 c-9 -2 -19 -16 -21 -31 -4 -24 -4 -24 -6 6 -1 27 2 32 22 31 15 -1 17 -3 5 -6z m23 -32 c-15 -15 -21 -17 -21 -7 0 8 7 17 16 20 9 3 12 11 8 18 -5 10 -4 10 6 2 9 -10 8 -16 -9 -33z m67 32 c-10 -2 -18 -11 -18 -19 0 -8 -4 -14 -10 -14 -5 0 -10 4 -10 8 0 14 23 32 40 31 11 -1 11 -2 -2 -6z m56 -45 c7 -5 5 -8 -6 -8 -14 0 -18 8 -17 33 2 27 2 28 6 7 3 -14 10 -28 17 -32z m76 7 c0 -25 -3 -45 -7 -45 -5 0 -8 20 -8 45 0 25 3 45 8 45 4 0 7 -20 7 -45z m40 15 c0 -16 -3 -30 -7 -30 -5 0 -8 14 -8 30 0 17 3 30 8 30 4 0 7 -13 7 -30z m32 0 c3 -16 1 -30 -4 -30 -4 0 -8 14 -8 30 0 17 2 30 4 30 2 0 6 -13 8 -30z m38 0 c0 -16 -4 -30 -8 -30 -5 0 -7 14 -4 30 2 17 6 30 8 30 2 0 4 -13 4 -30z m40 0 c0 -16 -4 -30 -10 -30 -5 0 -10 14 -10 30 0 17 5 30 10 30 6 0 10 -13 10 -30z m40 15 c-7 -8 -10 -22 -6 -30 3 -9 2 -13 -4 -10 -11 7 -13 38 -3 48 13 14 25 7 13 -8z m74 -19 c-3 -14 -10 -26 -14 -26 -5 0 -3 13 3 30 13 35 21 33 11 -4z m40 0 c-3 -14 -10 -26 -14 -26 -5 0 -3 13 3 30 13 35 21 33 11 -4z m-82 -12 c-9 -16 -10 -14 -9 8 1 15 6 23 11 18 4 -4 4 -16 -2 -26z m145 11 c-7 -14 -15 -25 -19 -25 -4 0 -2 11 4 25 6 14 15 25 19 25 4 0 2 -11 -4 -25z m-640 -22 c-4 -3 -7 0 -7 7 0 7 3 10 7 7 3 -4 3 -10 0 -14z m163 13 c0 -3 -4 -8 -10 -11 -5 -3 -10 -1 -10 4 0 6 5 11 10 11 6 0 10 -2 10 -4z m-2314 -485 c-3 -5 -15 -7 -26 -4 -28 7 -25 13 6 13 14 0 23 -4 20 -9z m564 5 c0 -2 -11 -6 -25 -8 -14 -3 -25 -1 -25 3 0 5 11 9 25 9 14 0 25 -2 25 -4z m73 -3 c-7 -2 -21 -2 -30 0 -10 3 -4 5 12 5 17 0 24 -2 18 -5z m337 3 c0 -2 -11 -6 -25 -8 -14 -3 -25 -1 -25 3 0 5 11 9 25 9 14 0 25 -2 25 -4z m-712 -96 c-7 -11 -19 -22 -26 -25 -13 -5 -8 8 13 32 17 20 26 15 13 -7z m512 17 c0 -2 -12 -14 -27 -28 -24 -22 -24 -13 0 19 8 11 27 17 27 9z m27 -69 c-3 -8 -6 -5 -6 6 -1 11 2 17 5 13 3 -3 4 -12 1 -19z m20 0 c-3 -8 -6 -5 -6 6 -1 11 2 17 5 13 3 -3 4 -12 1 -19z m-530 -5 c-4 -3 -7 0 -7 7 0 7 3 10 7 7 3 -4 3 -10 0 -14z m-351 -330 c-11 -11 -17 4 -9 23 7 18 8 18 11 1 2 -10 1 -21 -2 -24z m132 -114 c13 -16 20 -29 15 -29 -5 0 -19 14 -31 30 -29 39 -14 38 16 -1z m2817 -180 c50 -7 96 -12 103 -12 6 0 12 -3 12 -7 0 -3 -48 -12 -107 -19 -60 -8 -113 -16 -120 -18 -13 -5 -21 22 -15 55 3 15 10 21 21 18 9 -2 57 -10 106 -17z m-2948 -26 c-4 -3 -7 0 -7 7 0 7 3 10 7 7 3 -4 3 -10 0 -14z m-127 -86 c0 -23 -35 -65 -45 -55 -3 3 1 11 10 18 8 7 15 23 15 36 0 13 5 24 10 24 6 0 10 -11 10 -23z m3177 16 c-4 -3 -10 -3 -14 0 -3 4 0 7 7 7 7 0 10 -3 7 -7z m43 -33 c-17 -22 -36 -40 -42 -40 -6 0 -3 9 7 20 10 11 15 20 12 20 -13 0 28 38 41 39 8 1 0 -16 -18 -39z m-3195 -30 c3 -5 4 -10 1 -10 -3 0 -8 5 -11 10 -3 6 -4 10 -1 10 3 0 8 -4 11 -10z m771 -14 c0 -14 -5 -21 -9 -17 -4 4 -5 15 -1 24 9 24 12 21 10 -7z m71 -43 c-2 -16 -4 -5 -4 22 0 28 2 40 4 28 2 -13 2 -35 0 -50z m41 31 c-1 -9 -10 -20 -18 -22 -13 -5 -13 -3 -1 11 7 9 10 25 7 34 -6 14 -4 15 4 7 7 -7 10 -20 8 -30z m29 -11 c-3 -10 -5 -2 -5 17 0 19 2 27 5 18 2 -10 2 -26 0 -35z m76 40 c3 -5 -6 -8 -19 -8 -13 0 -24 3 -24 8 0 4 9 7 19 7 11 0 22 -3 24 -7z m37 -4 c0 -8 6 -7 17 2 16 13 16 13 0 -11 -9 -13 -17 -32 -17 -42 0 -9 -3 -19 -7 -21 -5 -3 -8 15 -8 39 0 24 3 44 8 44 4 0 7 -5 7 -11z m70 -25 c0 -21 -4 -33 -10 -29 -5 3 -10 19 -10 36 0 16 5 29 10 29 6 0 10 -16 10 -36z m2115 26 c3 -5 4 -10 1 -10 -3 0 -8 5 -11 10 -3 6 -4 10 -1 10 3 0 8 -4 11 -10z m-2398 -32 c-3 -7 -5 -2 -5 12 0 14 2 19 5 13 2 -7 2 -19 0 -25z m181 0 c-2 -6 -10 -14 -18 -16 -8 -3 -10 0 -5 8 6 10 4 12 -8 7 -10 -3 -17 -2 -17 3 0 6 12 10 26 10 15 0 24 -5 22 -12z"/>
<path d="M810 465 l0 -225 320 0 320 0 0 225 0 225 -250 0 -250 0 -3 -182 -2 -183 -3 183 -2 182 -65 0 -65 0 0 -225z m185 36 c0 -16 -3 -27 -7 -24 -13 7 -7 53 6 53 1 0 1 -13 1 -29z m41 -2 c1 -16 -3 -26 -10 -23 -15 6 -17 51 -2 51 6 0 11 -13 12 -28z"/>
</g>
<g id="layer104" fill="#c0c1c1" stroke="none">
<path d="M0 1230 l0 -1230 1805 0 1805 0 0 1230 0 1230 -1805 0 -1805 0 0 -1230z m1467 1126 c22 -21 28 -22 40 -10 8 8 18 14 22 14 16 0 33 -30 27 -45 -9 -24 -37 -30 -51 -11 -11 14 -13 15 -19 1 -3 -8 -17 -15 -31 -15 -23 0 -25 4 -25 45 0 25 2 45 5 45 3 0 18 -11 32 -24z m659 12 c4 -6 -4 -19 -19 -30 -27 -20 -35 -38 -17 -38 6 0 10 7 10 15 0 8 5 15 10 15 16 0 11 -30 -6 -37 -21 -8 -30 5 -37 50 -6 35 -5 37 23 37 16 0 32 -5 36 -12z m-1066 -45 c0 -18 -4 -33 -8 -33 -4 0 -8 10 -7 23 0 32 -19 37 -23 5 -2 -16 -7 -28 -12 -28 -7 0 -5 22 5 57 2 6 13 11 24 10 17 -1 21 -8 21 -34z m178 3 c-2 -23 -9 -32 -24 -34 -17 -2 -23 3 -27 25 -7 36 -3 41 28 41 23 0 26 -4 23 -32z m67 -16 c0 -26 -5 -45 -13 -48 -7 -2 -10 2 -6 11 3 9 -3 16 -15 20 -14 3 -21 13 -21 29 0 31 7 38 34 34 18 -2 21 -10 21 -46z m73 12 c2 -18 -1 -32 -7 -32 -6 0 -11 11 -11 25 0 14 -4 25 -10 25 -5 0 -10 -11 -10 -25 0 -14 -4 -25 -10 -25 -11 0 -14 53 -4 63 4 4 16 5 28 3 15 -2 22 -11 24 -34z m409 29 c6 -1 13 -11 15 -23 4 -31 28 -35 28 -5 0 28 26 43 46 26 15 -12 19 -48 7 -50 -5 -1 -29 -3 -54 -4 -43 -2 -45 -1 -41 21 2 13 0 24 -6 24 -6 0 -12 -10 -14 -22 -4 -33 -43 -31 -44 2 -2 33 1 37 28 34 13 -1 28 -3 35 -3z m257 3 c23 -9 20 -23 -4 -17 -11 3 -20 0 -20 -6 0 -6 9 -11 21 -11 12 0 19 -5 17 -12 -7 -19 -39 -16 -51 4 -8 12 -7 21 2 32 15 18 14 18 35 10z m150 -17 c8 -12 7 -21 -6 -33 -22 -22 -48 -11 -48 20 0 37 34 45 54 13z m-1080 -16 c-7 -14 -15 -34 -18 -43 -10 -34 -21 -18 -18 26 3 38 7 44 27 44 21 0 22 -2 9 -27z m56 -10 c0 -22 -4 -43 -10 -46 -6 -4 -10 12 -10 39 0 25 5 46 10 46 6 0 10 -18 10 -39z m420 14 c0 -14 5 -25 10 -25 6 0 10 11 10 25 0 14 5 25 10 25 6 0 10 -11 10 -25 0 -14 5 -25 10 -25 6 0 10 11 10 25 0 14 5 25 10 25 12 0 13 -30 2 -46 -4 -6 -26 -12 -49 -12 -41 -2 -43 -1 -43 28 0 17 5 30 10 30 6 0 10 -11 10 -25z m110 -5 c0 -16 -4 -30 -10 -30 -5 0 -10 14 -10 30 0 17 5 30 10 30 6 0 10 -13 10 -30z m240 25 c0 -12 -24 -55 -32 -55 -11 0 -10 4 4 35 9 21 28 35 28 20z m36 -7 c-3 -7 -9 -21 -12 -30 -7 -19 -24 -25 -24 -8 0 15 23 50 33 50 5 0 6 -6 3 -12z m-849 -45 c-4 -3 -10 -3 -14 0 -3 4 0 7 7 7 7 0 10 -3 7 -7z m570 -30 c-4 -3 -10 -3 -14 0 -3 4 0 7 7 7 7 0 10 -3 7 -7z m-139 -58 c21 -20 25 -29 16 -42 -5 -9 -20 -17 -32 -18 -20 -1 -22 3 -22 42 0 24 2 43 5 43 3 0 18 -11 33 -25z m-558 -12 c0 -15 2 -14 14 3 8 10 17 16 21 12 4 -3 -3 -16 -14 -27 -12 -12 -21 -33 -21 -47 0 -14 -4 -23 -10 -19 -5 3 -10 26 -10 51 0 24 5 44 10 44 6 0 10 -8 10 -17z m70 -19 c0 -21 -4 -33 -10 -29 -5 3 -10 19 -10 36 0 16 5 29 10 29 6 0 10 -16 10 -36z m66 24 c4 -7 4 -10 -1 -6 -12 11 -35 -11 -28 -28 4 -11 9 -12 19 -3 7 6 18 7 25 3 8 -5 10 1 7 20 -3 16 -1 26 7 26 8 0 10 -9 7 -25 -3 -19 0 -25 14 -25 9 0 14 -3 10 -7 -11 -11 -35 -12 -42 -2 -3 6 -11 5 -20 -2 -25 -21 -61 31 -37 54 10 11 31 8 39 -5z m154 -14 c0 -13 5 -24 10 -24 6 0 10 11 10 25 0 14 5 25 11 25 6 0 9 -14 7 -32 -2 -28 -7 -33 -28 -33 -19 0 -26 7 -31 30 l-7 30 -1 -27 c0 -16 -5 -28 -9 -28 -5 0 -8 10 -8 21 1 33 -22 34 -27 2 -4 -28 -4 -28 -6 3 -1 30 1 32 39 32 36 1 40 -2 40 -24z m108 6 c4 -12 3 -13 -10 -3 -17 15 -28 7 -28 -19 0 -20 16 -25 23 -5 2 6 8 9 12 4 13 -11 -11 -31 -30 -24 -22 9 -29 35 -15 53 16 18 41 15 48 -6z m33 8 c0 -10 2 -10 6 0 2 6 12 12 21 12 12 0 11 -4 -6 -23 -12 -13 -22 -33 -22 -45 0 -11 -4 -24 -10 -27 -6 -4 -10 13 -10 44 0 28 5 51 10 51 6 0 10 -6 11 -12z m179 -13 c0 -17 6 -25 17 -25 21 0 12 -9 -16 -15 -18 -3 -21 1 -21 31 0 19 5 34 10 34 6 0 10 -11 10 -25z m58 -2 l23 -28 -5 25 c-5 24 -3 25 53 27 l59 3 0 -35 c0 -34 -19 -48 -33 -25 -5 8 -11 7 -21 -1 -8 -6 -21 -8 -31 -4 -10 5 -22 7 -27 6 -11 -2 -35 18 -47 41 -15 27 2 22 29 -9z m204 -8 c-5 -43 -22 -46 -22 -4 0 17 -4 28 -10 24 -5 -3 -10 -17 -10 -31 0 -13 -4 -24 -8 -24 -4 0 -6 16 -4 35 4 30 8 35 31 35 25 0 27 -3 23 -35z m46 0 c-6 -13 -17 -26 -24 -29 -17 -7 -17 -6 2 33 18 36 39 33 22 -4z m36 -1 c-23 -34 -38 -30 -19 6 9 17 20 28 25 25 6 -4 3 -16 -6 -31z m116 11 c0 -14 5 -25 10 -25 6 0 10 11 10 25 0 14 5 25 11 25 6 0 9 -14 7 -32 -2 -28 -7 -33 -28 -33 -20 0 -26 7 -31 30 l-6 30 -4 -30 c-3 -22 -9 -30 -24 -30 -15 0 -20 8 -22 33 -3 31 -2 32 37 32 36 0 40 -3 40 -25z m72 -11 c-5 -41 -15 -38 -16 6 -1 16 4 30 9 30 7 0 9 -15 7 -36z m69 2 c-9 -40 -45 -45 -47 -6 -2 33 1 38 29 38 21 0 23 -4 18 -32z m-1144 -63 c-4 -3 -7 0 -7 7 0 7 3 10 7 7 3 -4 3 -10 0 -14z m1070 0 c-4 -3 -7 0 -7 7 0 7 3 10 7 7 3 -4 3 -10 0 -14z m-152 -28 c104 -14 98 -18 -43 -34 -57 -7 -110 -15 -118 -18 -11 -4 -14 5 -14 37 l0 42 43 -8 c23 -4 83 -12 132 -19z m475 11 c0 -7 9 -16 21 -19 32 -9 22 -51 -13 -55 -27 -3 -28 -2 -28 42 0 25 5 46 10 46 6 0 10 -6 10 -14z m194 -1 c-4 -8 -1 -15 5 -15 6 0 11 -4 11 -10 0 -5 -6 -7 -14 -4 -8 3 -17 1 -21 -5 -3 -7 2 -11 14 -11 12 0 21 -7 21 -15 0 -19 -34 -20 -49 -1 -12 14 -5 46 10 46 5 0 9 7 9 15 0 8 4 15 10 15 5 0 7 -7 4 -15z m70 9 c24 -9 19 -34 -6 -35 l-23 0 23 -9 c33 -14 29 -42 -5 -38 -23 2 -28 9 -30 33 -4 51 5 63 41 49z m-2487 -231 c-1 -43 -3 -10 -3 72 0 83 2 118 3 78 2 -40 2 -107 0 -150z m70 0 c-1 -43 -3 -10 -3 72 0 83 2 118 3 78 2 -40 2 -107 0 -150z m3080 0 c-1 -43 -3 -10 -3 72 0 83 2 118 3 78 2 -40 2 -107 0 -150z m60 0 c-1 -43 -3 -10 -3 72 0 83 2 118 3 78 2 -40 2 -107 0 -150z m-1879 200 c-114 -2 -303 -2 -420 0 -117 1 -24 2 207 2 231 0 327 -1 213 -2z m857 -2 c3 -5 -5 -17 -17 -27 -15 -11 -17 -14 -5 -11 9 4 17 2 17 -3 0 -6 -9 -10 -20 -10 -25 0 -26 25 -2 40 16 11 16 11 0 6 -10 -3 -18 -1 -18 4 0 13 37 13 45 1z m105 -15 c0 -13 6 -27 13 -29 6 -3 2 -6 -10 -6 -19 -1 -23 4 -23 29 0 17 5 30 10 30 6 0 10 -11 10 -24z m68 17 c-16 -4 -16 -6 -2 -29 23 -35 2 -30 -24 6 l-23 30 33 -1 c18 -1 25 -3 16 -6z m175 -25 c-1 -18 -2 -39 -2 -45 -1 -7 -4 -13 -8 -13 -5 0 -8 20 -8 45 0 25 5 45 10 45 6 0 9 -15 8 -32z m77 17 c10 -12 10 -18 0 -30 -7 -8 -18 -15 -25 -15 -19 0 -36 25 -29 44 8 20 38 21 54 1z m70 -30 c0 -25 -4 -45 -10 -45 -5 0 -10 20 -10 45 0 25 5 45 10 45 6 0 10 -20 10 -45z m40 15 c0 -16 -4 -30 -10 -30 -5 0 -10 14 -10 30 0 17 5 30 10 30 6 0 10 -13 10 -30z m40 5 c0 -14 5 -25 11 -25 7 0 9 10 7 25 -4 17 -1 25 9 25 10 0 13 -9 11 -27 -2 -22 -9 -29 -30 -31 -25 -3 -28 0 -28 27 0 17 5 31 10 31 6 0 10 -11 10 -25z m70 -5 c0 -16 -4 -30 -10 -30 -5 0 -10 14 -10 30 0 17 5 30 10 30 6 0 10 -13 10 -30z m75 0 c0 -18 -6 -26 -23 -28 -24 -4 -38 18 -28 44 3 9 15 14 28 12 17 -2 23 -10 23 -28z m43 -5 c-16 -35 -29 -31 -17 5 6 16 15 28 20 25 4 -3 3 -17 -3 -30z m40 0 c-11 -25 -28 -34 -28 -15 0 17 23 49 32 44 4 -3 2 -16 -4 -29z m86 26 c4 -5 -2 -7 -13 -4 -10 3 -22 0 -25 -6 -5 -7 3 -11 19 -11 17 0 25 -5 22 -12 -6 -19 -69 -17 -74 2 -4 13 -3 13 6 0 9 -13 11 -12 11 6 0 11 3 24 7 27 9 10 41 8 47 -2z m-357 -78 c-4 -3 -10 -3 -14 0 -3 4 0 7 7 7 7 0 10 -3 7 -7z m110 0 c-4 -3 -10 -3 -14 0 -3 4 0 7 7 7 7 0 10 -3 7 -7z m-712 -130 c72 -64 131 -119 133 -122 1 -4 -6 -11 -16 -17 -16 -10 -33 2 -128 87 l-109 98 -647 1 -648 0 0 35 0 35 643 0 642 0 130 -117z m-1407 -115 c56 -1 59 -2 20 -5 -36 -3 -48 -8 -49 -21 -1 -15 -2 -15 -6 1 -2 9 -13 17 -24 17 -16 0 -19 8 -20 48 -1 29 -4 36 -6 20 -3 -20 -10 -28 -24 -28 -10 0 -19 4 -19 10 0 5 6 7 13 4 7 -2 13 4 14 16 1 11 -3 20 -8 20 -6 0 -7 -5 -3 -11 4 -7 1 -10 -7 -7 -19 6 -18 33 1 34 8 1 21 2 28 3 6 0 13 16 14 34 1 17 4 -5 5 -50 l4 -83 67 -2z m-351 93 c6 -1 13 -11 15 -23 3 -26 23 -22 22 5 0 9 3 17 8 17 4 0 8 -9 8 -19 0 -11 5 -23 10 -26 6 -4 10 5 10 19 0 14 5 26 11 26 6 0 9 -12 7 -27 -3 -25 -7 -28 -49 -29 -43 -1 -45 0 -41 22 2 14 0 24 -7 24 -6 0 -11 -9 -11 -20 0 -25 -27 -37 -43 -20 -10 10 -8 12 6 7 12 -5 17 -1 17 13 0 11 -5 20 -11 20 -5 0 -7 -6 -3 -12 5 -10 4 -10 -6 -1 -17 16 -6 30 22 27 13 -1 28 -3 35 -3z m152 -5 c10 -12 9 -13 -7 -9 -11 2 -23 0 -26 -6 -5 -7 3 -11 19 -11 17 0 25 -5 23 -12 -3 -7 -15 -13 -29 -13 -27 0 -38 28 -19 50 16 19 24 19 39 1z m-268 -8 c0 -10 2 -10 6 0 2 6 12 12 21 12 12 0 11 -4 -6 -23 -12 -13 -22 -33 -22 -45 0 -12 -4 -22 -10 -22 -5 0 -10 20 -10 45 0 25 5 45 10 45 6 0 10 -6 11 -12z m309 -12 c0 -13 6 -27 13 -29 6 -3 2 -6 -10 -6 -19 -1 -23 4 -23 29 0 17 5 30 10 30 6 0 10 -11 10 -24z m1781 -23 c13 -16 12 -17 -3 -4 -10 7 -18 15 -18 17 0 8 8 3 21 -13z m-11 -31 c0 -4 -10 -13 -22 -21 -23 -14 -23 -14 -4 8 20 22 26 25 26 13z m-2350 -11 c0 -4 -11 -6 -25 -3 -32 6 -31 -1 1 -44 l26 -34 -36 0 c-20 0 -36 4 -36 9 0 5 10 7 21 4 19 -5 20 -3 11 14 -6 11 -18 25 -26 33 -26 21 -18 30 24 30 22 0 40 -4 40 -9z m129 -253 c1 -14 -7 -18 -39 -18 -46 0 -45 -2 -26 82 8 35 17 81 20 103 3 22 6 42 7 45 2 7 38 -190 38 -212z m634 185 l-23 -4 0 -275 0 -274 30 0 c17 0 30 -5 30 -11 0 -7 -11 -8 -30 -4 l-30 7 0 -206 0 -206 200 0 200 0 2 208 3 207 2 -209 3 -210 38 35 37 34 -29 -32 -30 -33 47 0 47 0 0 -245 0 -245 -335 0 -335 0 0 53 c-1 28 0 134 0 235 l1 182 -246 0 -246 0 1 -181 c1 -99 -1 -183 -4 -187 -3 -3 -6 7 -6 21 0 15 -6 27 -12 28 -10 0 -10 2 -1 5 9 4 12 130 13 526 0 287 2 524 5 526 3 3 5 -63 5 -146 l0 -152 30 0 c17 0 30 -5 30 -11 0 -7 -11 -8 -30 -4 l-30 7 0 -211 0 -211 218 0 c119 0 261 3 315 7 l97 6 0 205 0 205 -30 -6 c-16 -4 -32 -2 -35 3 -4 6 9 10 29 10 l36 0 0 280 0 280 28 -1 c23 -2 24 -2 5 -6z m1430 0 c-7 -2 -21 -2 -30 0 -10 3 -4 5 12 5 17 0 24 -2 18 -5z m58 -16 c-5 -5 -18 -7 -28 -3 -14 6 -15 9 -4 16 19 11 46 1 32 -13z m684 3 c3 -5 1 -10 -4 -10 -6 0 -11 5 -11 10 0 6 2 10 4 10 3 0 8 -4 11 -10z m-725 -13 c0 -2 -10 -12 -22 -23 l-23 -19 19 23 c18 21 26 27 26 19z m70 -52 c0 -25 -4 -45 -10 -45 -5 0 -10 20 -10 45 0 25 5 45 10 45 6 0 10 -20 10 -45z m120 32 c0 -20 -32 -42 -69 -45 -27 -3 -33 -1 -28 12 3 8 2 18 -4 21 -20 13 4 25 52 25 33 0 49 -4 49 -13z m100 -12 c0 -13 6 -26 13 -28 6 -3 -11 -6 -40 -6 -55 -1 -68 7 -58 38 5 15 15 20 45 19 35 0 40 -3 40 -23z m80 -20 c0 -25 -4 -45 -10 -45 -5 0 -10 20 -10 45 0 25 5 45 10 45 6 0 10 -20 10 -45z m40 15 c0 -16 -4 -30 -10 -30 -5 0 -10 14 -10 30 0 17 5 30 10 30 6 0 10 -13 10 -30z m40 5 c0 -14 5 -25 10 -25 6 0 10 11 10 25 0 14 5 25 11 25 6 0 9 -12 7 -27 -2 -22 -9 -29 -30 -31 -25 -3 -28 0 -28 27 0 17 5 31 10 31 6 0 10 -11 10 -25z m70 -5 c0 -16 -4 -30 -10 -30 -5 0 -10 14 -10 30 0 17 5 30 10 30 6 0 10 -13 10 -30z m75 1 c0 -13 -5 -26 -11 -28 -7 -2 -10 6 -6 23 4 20 1 25 -9 22 -8 -3 -14 -15 -13 -26 0 -17 -2 -19 -13 -11 -19 17 3 51 30 47 16 -2 22 -10 22 -27z m43 -6 c-16 -35 -29 -31 -15 4 6 17 14 28 19 25 4 -3 2 -16 -4 -29z m45 8 c-7 -3 -13 -11 -13 -19 0 -8 -4 -14 -10 -14 -14 0 -13 16 2 40 9 14 15 16 23 9 7 -8 6 -13 -2 -16z m55 -8 c-7 -15 -20 -25 -32 -25 -20 0 -20 0 2 16 12 8 22 22 22 30 0 8 4 13 10 9 6 -3 5 -15 -2 -30z m-551 -22 c-4 -3 -10 -3 -14 0 -3 4 0 7 7 7 7 0 10 -3 7 -7z m-277 -16 c0 -2 -12 -14 -27 -28 l-28 -24 24 28 c23 25 31 32 31 24z m497 -14 c-4 -3 -10 -3 -14 0 -3 4 0 7 7 7 7 0 10 -3 7 -7z m110 0 c-4 -3 -10 -3 -14 0 -3 4 0 7 7 7 7 0 10 -3 7 -7z m-707 -76 c0 -2 -12 -14 -27 -28 l-28 -24 24 28 c23 25 31 32 31 24z m-100 -90 c0 -2 -12 -14 -27 -28 l-28 -24 24 28 c23 25 31 32 31 24z m-90 -80 c0 -2 -17 -19 -37 -38 l-38 -34 34 38 c33 34 41 42 41 34z m-120 -110 c0 -2 -12 -14 -27 -28 l-28 -24 24 28 c23 25 31 32 31 24z m-598 -89 c-17 -8 -26 -8 -34 0 -9 9 -4 12 23 11 32 0 33 -1 11 -11z m498 -2 c0 -2 -8 -10 -17 -17 -16 -13 -17 -12 -4 4 13 16 21 21 21 13z m-1190 -81 c-10 -12 -10 -18 0 -30 9 -10 9 -15 1 -15 -6 0 -11 5 -11 12 0 9 -3 9 -12 0 -24 -24 -29 -11 -8 18 12 17 26 30 32 30 6 0 6 -6 -2 -15z m485 5 c3 5 11 10 17 10 7 0 6 -6 -2 -15 -10 -12 -10 -18 0 -30 9 -10 9 -15 1 -15 -6 0 -11 5 -11 12 0 9 -3 9 -12 0 -18 -18 -30 -14 -19 6 7 13 6 23 -2 32 -10 12 -9 12 5 2 11 -9 18 -10 23 -2z m605 -14 c0 -2 -8 -10 -17 -17 -16 -13 -17 -12 -4 4 13 16 21 21 21 13z m-1050 -47 c0 -5 -4 -9 -10 -9 -5 0 -10 7 -10 16 0 8 5 12 10 9 6 -3 10 -10 10 -16z m500 0 c0 -11 -4 -18 -10 -14 -5 3 -7 12 -3 20 7 21 13 19 13 -6z m23 6 c4 -8 2 -17 -3 -20 -6 -4 -10 3 -10 14 0 25 6 27 13 6z m447 -28 c0 -2 -12 -14 -27 -28 l-28 -24 24 28 c23 25 31 32 31 24z m-110 -100 c0 -2 -15 -16 -32 -33 l-33 -29 29 33 c28 30 36 37 36 29z m-1092 -327 c15 -19 18 -30 10 -30 -7 0 -21 14 -30 30 -22 39 -8 39 20 0z m19 13 c-4 -3 -7 0 -7 7 0 7 3 10 7 7 3 -4 3 -10 0 -14z m-40 -40 c-4 -3 -10 -3 -14 0 -3 4 0 7 7 7 7 0 10 -3 7 -7z m-72 -143 c3 -5 4 -10 1 -10 -3 0 -8 5 -11 10 -3 6 -4 10 -1 10 3 0 8 -4 11 -10z m2918 -11 c59 -7 107 -16 107 -19 0 -3 -48 -12 -107 -19 -60 -8 -113 -16 -120 -18 -6 -2 -13 4 -15 14 -6 29 3 65 16 60 6 -3 59 -10 119 -18z m-2913 -43 c0 -3 -5 -8 -12 -12 -7 -4 -8 -3 -4 4 7 12 16 16 16 8z m-37 -23 c-7 -2 -19 -2 -25 0 -7 3 -2 5 12 5 14 0 19 -2 13 -5z m-130 -39 c-3 -8 4 -29 16 -45 18 -24 19 -29 6 -29 -9 0 -14 4 -11 9 3 5 -1 14 -10 22 -13 10 -16 9 -21 -9 -4 -15 -13 -22 -31 -22 l-25 0 27 21 c15 12 26 30 26 45 0 14 6 24 15 24 9 0 12 -6 8 -16z m3183 -1 c13 -17 15 -17 28 0 7 9 19 17 26 17 9 0 8 -5 -3 -18 -10 -10 -17 -22 -17 -27 0 -5 7 -17 17 -27 9 -10 11 -18 6 -18 -6 0 -13 7 -17 15 -3 8 -10 15 -16 15 -5 0 -10 -7 -10 -15 0 -9 -9 -15 -22 -15 l-21 0 21 23 22 23 -22 22 c-13 12 -19 22 -14 22 5 0 15 -8 22 -17z m-2352 -49 c19 -19 4 -57 -21 -52 -26 5 -39 34 -24 52 17 20 26 20 45 0z m70 0 c19 -19 20 -26 4 -42 -17 -17 -33 -15 -18 3 7 8 10 22 6 31 -10 27 -26 5 -26 -37 0 -21 -4 -39 -8 -39 -8 0 -5 61 3 88 6 16 20 15 39 -4z m100 10 c23 -9 20 -23 -4 -17 -11 3 -20 0 -20 -6 0 -6 9 -11 21 -11 12 0 19 -5 17 -12 -7 -19 -39 -16 -51 4 -8 12 -7 21 2 32 15 18 14 18 35 10z m118 -38 c-2 -20 -8 -33 -13 -30 -10 6 -12 57 -3 67 13 13 20 -3 16 -37z m-172 10 c0 -14 -4 -28 -10 -31 -6 -4 -10 7 -10 24 0 17 5 31 10 31 6 0 10 -11 10 -24z m101 12 c0 -10 2 -10 6 0 2 6 12 12 21 12 12 0 11 -4 -6 -23 -12 -13 -22 -33 -22 -45 0 -12 -4 -22 -10 -22 -5 0 -10 20 -10 45 0 25 5 45 10 45 6 0 10 -6 11 -12z"/>
<path d="M1514 2335 c-3 -8 -3 -19 1 -25 11 -18 25 -11 25 15 0 27 -17 34 -26 10z"/>
<path d="M2075 2360 c3 -5 13 -10 21 -10 8 0 14 5 14 10 0 6 -9 10 -21 10 -11 0 -17 -4 -14 -10z"/>
<path d="M1203 2320 c-1 -11 2 -20 8 -20 5 0 9 9 9 20 0 11 -4 20 -8 20 -4 0 -8 -9 -9 -20z"/>
<path d="M1262 2323 c5 -25 28 -28 28 -4 0 12 -6 21 -16 21 -9 0 -14 -7 -12 -17z"/>
<path d="M1734 2325 c4 -24 16 -30 16 -7 0 12 -4 22 -9 22 -5 0 -8 -7 -7 -15z"/>
<path d="M1710 2160 c0 -5 5 -10 10 -10 6 0 10 5 10 10 0 6 -4 10 -10 10 -5 0 -10 -4 -10 -10z"/>
<path d="M2000 2190 c0 -5 5 -10 10 -10 6 0 10 5 10 10 0 6 -4 10 -10 10 -5 0 -10 -4 -10 -10z"/>
<path d="M2005 2160 c3 -5 8 -10 11 -10 2 0 4 5 4 10 0 6 -5 10 -11 10 -5 0 -7 -4 -4 -10z"/>
<path d="M2180 2190 c0 -5 5 -10 11 -10 5 0 7 5 4 10 -3 6 -8 10 -11 10 -2 0 -4 -4 -4 -10z"/>
<path d="M2695 2090 c-3 -5 3 -10 15 -10 12 0 18 5 15 10 -3 6 -10 10 -15 10 -5 0 -12 -4 -15 -10z"/>
<path d="M2810 2050 c0 -11 7 -20 15 -20 8 0 15 9 15 20 0 11 -7 20 -15 20 -8 0 -15 -9 -15 -20z"/>
<path d="M3107 2063 c-13 -12 -7 -33 8 -33 8 0 15 9 15 20 0 20 -11 26 -23 13z"/>
<path d="M3278 2033 c7 -3 16 -2 19 1 4 3 -2 6 -13 5 -11 0 -14 -3 -6 -6z"/>
<path d="M810 465 l0 -225 320 0 320 0 0 225 0 225 -250 0 -250 0 -3 -182 -2 -183 -3 183 -2 182 -65 0 -65 0 0 -225z m520 212 c0 -2 -12 -14 -27 -28 l-28 -24 24 28 c23 25 31 32 31 24z m-100 -90 c0 -2 -15 -16 -32 -33 l-33 -29 29 33 c28 30 36 37 36 29z m-85 -27 c3 -5 4 -10 1 -10 -3 0 -8 5 -11 10 -3 6 -4 10 -1 10 3 0 8 -4 11 -10z m-102 -37 c-8 -3 -11 -14 -7 -30 6 -22 4 -24 -22 -21 -23 2 -30 9 -32 31 -3 25 -1 27 35 26 21 0 32 -3 26 -6z m87 -26 c0 -2 -12 -14 -27 -28 l-28 -24 24 28 c23 25 31 32 31 24z m-100 -90 c0 -2 -12 -14 -27 -28 l-28 -24 24 28 c23 25 31 32 31 24z"/>
<path d="M990 500 c0 -13 5 -20 13 -17 6 2 12 10 12 17 0 7 -6 15 -12 18 -8 2 -13 -5 -13 -18z"/>
<path d="M2520 1630 c0 -5 5 -10 10 -10 6 0 10 5 10 10 0 6 -4 10 -10 10 -5 0 -10 -4 -10 -10z"/>
<path d="M2565 1629 c-11 -17 -2 -18 19 -3 17 12 17 14 4 14 -9 0 -20 -5 -23 -11z"/>
<path d="M2523 1603 c4 -3 10 -3 14 0 3 4 0 7 -7 7 -7 0 -10 -3 -7 -7z"/>
<path d="M2645 1629 c-4 -5 3 -9 14 -9 10 0 22 -6 24 -12 3 -7 6 -4 6 7 1 22 -33 32 -44 14z"/>
</g>
<g id="layer105" fill="#ffffff" stroke="none">
<path d="M0 1230 l0 -1230 1805 0 1805 0 0 1230 0 1230 -1805 0 -1805 0 0 -1230z m1456 1138 c8 -7 20 -18 27 -24 9 -8 15 -7 24 5 15 21 47 4 51 -28 4 -26 -23 -39 -49 -23 -11 7 -20 8 -24 2 -3 -6 -18 -10 -33 -10 -25 0 -27 3 -27 45 0 47 6 53 31 33z m670 0 c4 -6 -4 -19 -19 -30 -27 -20 -35 -38 -17 -38 6 0 10 7 10 15 0 22 17 18 23 -5 4 -17 0 -20 -24 -20 -16 0 -29 5 -29 12 0 9 -3 9 -12 0 -19 -19 -46 -14 -53 9 -8 26 16 54 39 46 23 -9 20 -26 -4 -20 -11 3 -20 0 -20 -6 0 -6 11 -11 25 -11 18 0 25 5 25 19 0 11 8 22 18 24 9 2 7 3 -5 2 -13 -1 -23 2 -23 6 0 13 58 11 66 -3z m-1024 -22 c5 -7 8 -7 8 2 0 7 13 12 30 12 29 0 30 -1 30 -50 0 -34 -4 -50 -13 -50 -9 0 -12 14 -10 45 1 25 -2 45 -7 45 -14 0 -40 -42 -40 -67 0 -13 -6 -23 -13 -23 -8 0 -11 14 -8 46 2 32 0 44 -8 40 -6 -4 -11 -18 -11 -32 0 -13 -4 -24 -10 -24 -5 0 -10 11 -10 25 0 14 -4 25 -10 25 -5 0 -10 -11 -10 -25 0 -14 -4 -25 -10 -25 -11 0 -13 30 -4 53 6 17 85 20 96 3z m208 -38 c0 -36 -4 -48 -15 -48 -9 0 -12 6 -9 15 4 10 0 15 -10 15 -9 0 -19 7 -22 15 -6 14 -8 14 -18 -1 -18 -24 -49 -14 -51 16 -2 14 -1 28 1 31 1 3 30 5 63 5 l61 0 0 -48z m70 16 c0 -22 -5 -34 -14 -34 -9 0 -12 8 -8 25 2 15 0 25 -7 25 -6 0 -11 -11 -11 -25 0 -14 -4 -25 -10 -25 -10 0 -14 52 -5 62 3 3 17 6 30 6 22 0 25 -5 25 -34z m210 6 c0 -16 5 -30 11 -30 7 0 10 12 7 30 -3 20 0 30 9 30 8 0 13 -12 13 -30 0 -16 5 -30 11 -30 7 0 10 12 7 30 -4 28 -2 30 27 30 30 0 31 -2 27 -35 -5 -44 -22 -46 -23 -2 l-1 32 -7 -30 c-6 -28 -10 -30 -56 -33 l-50 -2 0 35 c0 21 5 35 13 35 7 0 12 -13 12 -30z m212 5 c-2 -14 2 -24 13 -29 12 -4 16 -2 12 8 -9 24 17 49 42 41 17 -5 21 -13 19 -33 -3 -25 -7 -27 -55 -29 -51 -3 -53 -2 -54 25 l-1 27 -7 -25 c-4 -15 -15 -26 -29 -28 -19 -3 -22 1 -22 32 0 35 0 35 43 34 40 0 43 -3 39 -23z m127 -18 c-13 -29 -36 -38 -24 -9 4 9 10 25 12 35 4 11 9 15 15 9 5 -5 4 -19 -3 -35z m59 3 c7 -18 7 -30 1 -30 -5 0 -9 7 -9 15 0 8 -4 15 -10 15 -5 0 -10 -7 -10 -15 0 -8 -6 -15 -14 -15 -9 0 -12 7 -9 20 3 11 9 20 14 20 5 0 9 7 9 16 0 23 17 8 28 -26z m205 19 c14 -22 2 -49 -22 -49 -26 0 -42 29 -29 53 11 21 36 19 51 -4z m-1053 -45 c0 -2 -7 -4 -15 -4 -8 0 -15 4 -15 10 0 5 7 7 15 4 8 -4 15 -8 15 -10z m557 -31 c-4 -3 -10 -3 -14 0 -3 4 0 7 7 7 7 0 10 -3 7 -7z m-157 -37 c0 -7 9 -16 20 -19 38 -10 19 -71 -20 -65 -20 3 -23 9 -24 51 -1 31 3 47 12 47 6 0 12 -6 12 -14z m-536 -28 c-6 -10 -4 -10 7 0 7 6 25 12 39 12 24 0 26 -3 22 -35 -5 -44 -22 -46 -22 -3 0 30 -1 31 -17 16 -13 -14 -14 -20 -3 -32 7 -9 9 -16 5 -16 -4 0 -14 8 -21 18 -12 15 -13 14 -14 -15 0 -18 -4 -33 -10 -33 -5 0 -10 23 -10 50 0 39 4 50 16 50 9 0 12 -5 8 -12z m176 -13 c0 -13 7 -25 15 -29 11 -4 15 2 15 24 0 29 2 30 44 30 41 0 43 -1 38 -25 -2 -15 0 -25 7 -25 6 0 11 11 11 25 0 15 6 25 14 25 10 0 12 -8 7 -32 -5 -26 -12 -33 -34 -35 -24 -2 -27 2 -29 30 l-1 32 -4 -32 c-5 -42 -23 -43 -23 -2 0 17 -4 28 -10 24 -5 -3 -10 -17 -10 -30 0 -23 -3 -24 -55 -23 -29 1 -52 5 -49 10 3 4 -2 5 -10 2 -12 -5 -16 0 -16 18 0 33 5 37 51 36 34 0 39 -3 39 -23z m252 11 c5 -8 8 -7 8 2 0 6 7 12 16 12 13 0 12 -5 -5 -26 -12 -15 -21 -38 -21 -51 0 -15 -5 -23 -12 -21 -8 3 -12 22 -11 49 0 25 -1 32 -4 16 -2 -16 -11 -31 -19 -34 -23 -8 -47 21 -39 46 5 16 14 20 43 19 20 -1 40 -6 44 -12z m178 -10 c0 -16 7 -26 23 -30 38 -10 41 -7 19 17 -12 13 -22 26 -22 29 0 4 38 6 84 6 l84 0 0 -34 c0 -27 -4 -34 -19 -34 -10 0 -19 5 -19 11 0 8 -5 8 -15 -1 -20 -16 -43 -6 -55 25 -5 14 -14 25 -20 25 -15 0 -12 -16 5 -30 27 -22 16 -30 -37 -27 -50 2 -51 2 -52 35 -1 19 4 32 12 32 6 0 12 -11 12 -24z m262 -11 c-5 -43 -22 -46 -22 -4 0 17 -4 28 -10 24 -5 -3 -10 -17 -10 -31 0 -13 -4 -24 -8 -24 -4 0 -6 16 -4 35 4 30 8 35 31 35 25 0 27 -3 23 -35z m72 21 c8 22 21 8 30 -31 l6 -30 -15 25 c-13 22 -21 16 -16 -12 0 -5 -6 -8 -15 -8 -10 0 -14 6 -10 15 3 8 1 15 -4 15 -6 0 -10 -7 -10 -15 0 -8 -7 -15 -15 -15 -19 0 -19 4 1 42 15 29 18 30 29 15 12 -17 13 -17 19 -1z m128 -11 c-2 -15 0 -25 7 -25 6 0 11 11 11 25 0 21 5 25 28 25 26 0 28 -2 24 -35 -2 -19 -8 -33 -12 -30 -4 2 -5 16 -2 30 2 14 0 25 -6 25 -6 0 -12 -12 -14 -27 -2 -22 -9 -28 -30 -30 -24 -2 -28 2 -29 25 l-1 27 -7 -25 c-11 -39 -45 -33 -48 8 -3 32 -2 32 41 32 41 0 43 -1 38 -25z m154 13 c4 -6 3 -8 -4 -4 -6 4 -12 -4 -14 -21 -2 -20 -9 -28 -23 -28 -15 0 -20 8 -22 33 -3 29 0 32 27 32 16 0 32 -5 36 -12z m-756 -54 c0 -2 -7 -4 -15 -4 -8 0 -15 4 -15 10 0 5 7 7 15 4 8 -4 15 -8 15 -10z m-403 -31 c-4 -3 -7 0 -7 7 0 7 3 10 7 7 3 -4 3 -10 0 -14z m1070 0 c-4 -3 -7 0 -7 7 0 7 3 10 7 7 3 -4 3 -10 0 -14z m-152 -28 c104 -14 98 -18 -43 -34 -57 -7 -110 -15 -118 -18 -11 -4 -14 5 -14 37 l0 42 43 -8 c23 -4 83 -12 132 -19z m482 18 c-4 -3 2 -13 14 -21 29 -20 22 -56 -12 -60 -25 -3 -27 0 -31 42 -3 40 -1 46 16 46 11 0 16 -3 13 -7z m188 -2 c-3 -5 -1 -12 5 -16 15 -9 12 -25 -4 -19 -8 3 -17 1 -21 -5 -4 -7 5 -11 24 -11 28 0 30 2 21 25 -8 22 -6 26 16 31 16 4 31 1 43 -10 10 -9 23 -16 29 -16 8 0 12 -17 12 -45 0 -30 -4 -45 -13 -45 -8 0 -12 13 -11 37 3 48 0 51 -33 45 -26 -5 -26 -5 -5 -13 29 -11 29 -39 -1 -39 -13 0 -28 5 -35 12 -9 9 -12 9 -12 0 0 -17 -47 -15 -54 3 -6 18 2 45 15 45 5 0 9 7 9 15 0 8 5 15 11 15 5 0 8 -4 4 -9z m-2345 -81 l0 -70 298 -2 297 -3 -297 -2 -297 -3 -3 -73 -3 -72 -35 0 -35 0 -3 148 -3 147 41 0 40 0 0 -70z m2109 56 c10 -11 7 -18 -11 -31 -15 -12 -17 -15 -5 -12 9 4 17 2 17 -3 0 -6 -9 -10 -20 -10 -25 0 -26 25 -2 40 16 11 16 11 0 6 -18 -5 -24 5 -11 17 10 11 19 8 32 -7z m435 -12 c10 -26 -5 -45 -33 -42 -31 4 -41 36 -16 54 19 14 41 9 49 -12z m289 4 c24 -37 -25 -67 -53 -33 -10 13 -9 19 5 35 20 22 33 22 48 -2z m168 5 c12 -15 12 -16 -3 -10 -10 3 -20 2 -23 -3 -4 -6 3 -10 15 -10 13 0 20 -5 18 -12 -7 -20 -52 -16 -56 5 -4 18 14 47 28 47 4 0 14 -8 21 -17z m139 -133 l0 -150 -35 0 -35 0 0 75 0 75 -517 2 -518 3 518 2 517 3 0 70 0 70 35 0 35 0 0 -150z m-1882 133 c-114 -2 -303 -2 -420 0 -117 1 -24 2 207 2 231 0 327 -1 213 -2z m965 -14 c-4 -12 0 -25 8 -30 11 -7 9 -9 -7 -9 -17 0 -23 7 -26 30 -4 23 -1 30 13 30 12 0 16 -6 12 -21z m77 11 c0 -5 -8 -7 -17 -3 -17 6 -17 5 0 -14 23 -27 22 -33 -10 -33 -21 0 -24 3 -13 10 12 7 12 12 -4 29 -19 21 -19 21 12 21 18 0 32 -4 32 -10z m312 -35 c-2 -25 -8 -45 -13 -45 -5 0 -9 20 -9 45 0 29 4 45 13 45 8 0 11 -14 9 -45z m78 20 c0 -14 5 -25 11 -25 7 0 9 10 7 25 -5 22 -2 25 27 25 29 0 31 -2 27 -30 -5 -38 -22 -39 -23 -2 l-1 27 -7 -25 c-5 -19 -15 -26 -38 -28 -28 -3 -30 -1 -26 22 3 16 1 26 -6 26 -6 0 -11 -11 -11 -25 0 -14 -4 -25 -10 -25 -5 0 -10 14 -10 30 0 27 3 30 30 30 25 0 30 -4 30 -25z m203 13 c4 -10 8 -10 15 1 8 11 13 7 26 -18 9 -17 12 -31 6 -31 -5 0 -10 8 -10 18 -1 16 -1 16 -14 0 -7 -10 -18 -18 -24 -18 -6 0 -9 8 -6 18 5 15 3 14 -10 -2 -21 -26 -30 -15 -15 18 13 28 24 33 32 14z m-246 -75 c-4 -3 -10 -3 -14 0 -3 4 0 7 7 7 7 0 10 -3 7 -7z m110 0 c-4 -3 -10 -3 -14 0 -3 4 0 7 7 7 7 0 10 -3 7 -7z m-712 -130 c72 -64 131 -119 133 -122 1 -4 -6 -11 -16 -17 -16 -10 -33 2 -128 87 l-109 98 -647 1 -648 0 0 35 0 35 643 0 642 0 130 -117z m-1462 50 c-9 -3 -13 -30 -13 -84 l0 -79 60 0 59 0 4 63 3 62 2 -67 c2 -55 -1 -68 -13 -68 -9 0 -15 -9 -15 -25 l0 -25 718 -3 717 -2 -732 -3 -733 -2 0 -275 0 -275 205 0 205 0 0 -211 0 -210 203 183 c111 101 247 224 302 273 56 50 193 173 305 274 264 238 250 225 250 219 0 -3 -234 -216 -521 -474 l-520 -469 45 -3 46 -3 0 -190 0 -189 808 -2 807 -3 -807 -2 -808 -3 0 -50 0 -50 -337 2 -338 3 -3 48 -3 47 -213 0 c-200 0 -214 -1 -231 -20 -34 -38 -95 -19 -95 31 0 22 6 32 24 41 l25 11 1 520 c0 286 2 523 5 525 3 3 5 -63 5 -146 l0 -152 315 0 315 0 0 275 c0 267 -1 275 -20 275 -16 0 -19 5 -13 30 5 26 3 30 -16 30 -15 0 -21 6 -21 23 0 21 -4 22 -52 20 l-53 -3 0 35 c0 21 5 35 13 35 7 0 12 -13 12 -31 0 -20 4 -29 13 -26 6 2 12 15 12 28 0 14 6 25 15 25 8 1 21 2 28 3 7 1 12 15 12 36 0 27 4 35 18 34 10 0 12 -3 5 -6z m-409 -80 c-5 -16 -4 -16 5 -2 8 12 26 16 69 17 56 0 59 -1 54 -23 -2 -12 1 -26 7 -29 7 -5 11 4 11 23 0 20 5 31 14 31 9 0 12 -8 9 -24 -3 -13 0 -27 6 -30 7 -5 11 4 11 23 0 19 5 31 13 31 9 0 12 -11 9 -34 -4 -34 -5 -34 -53 -33 -46 0 -49 2 -50 26 l-1 26 -7 -25 c-9 -31 -51 -42 -51 -12 0 10 -3 22 -7 25 -11 12 -43 -25 -43 -50 0 -12 -4 -23 -10 -23 -5 0 -10 23 -10 50 0 37 4 50 15 50 9 0 12 -6 9 -17z m265 3 c10 -12 9 -13 -7 -9 -11 2 -23 0 -26 -6 -5 -7 3 -11 19 -11 17 0 25 -5 23 -12 -7 -20 -52 -16 -56 5 -8 42 23 63 47 33z m1831 -57 c0 -4 -15 -17 -32 -29 l-33 -22 29 27 c32 29 27 47 -7 26 -22 -14 -22 -14 -3 8 15 16 22 18 33 10 7 -6 13 -15 13 -20z m-2060 5 c0 -2 -7 -4 -15 -4 -8 0 -15 4 -15 10 0 5 7 7 15 4 8 -4 15 -8 15 -10z m-306 -39 c3 -8 1 -15 -3 -15 -5 0 -11 5 -13 11 -2 6 -12 10 -21 8 -15 -3 -13 -9 13 -41 l31 -38 -40 0 c-23 0 -41 4 -41 9 0 5 10 6 23 3 21 -5 21 -5 -5 31 -16 19 -28 38 -28 41 0 3 18 6 39 6 25 0 41 -5 45 -15z m125 -247 c1 -14 -7 -18 -39 -18 -46 0 -45 -2 -26 82 8 35 17 81 20 103 3 22 6 42 7 45 2 7 38 -190 38 -212z m2122 169 c-5 -5 -18 -7 -28 -3 -14 6 -15 9 -4 16 19 11 46 1 32 -13z m699 -6 c21 -40 30 -71 20 -71 -6 0 -10 8 -10 18 -1 16 -1 16 -14 0 -7 -10 -21 -18 -30 -18 -9 0 -16 8 -16 18 -1 16 -1 16 -14 0 -23 -31 -38 -22 -21 12 9 17 18 30 20 30 2 0 11 -12 19 -27 l14 -28 13 29 c11 23 11 30 1 34 -14 4 -16 22 -2 22 5 0 14 -9 20 -19z m-670 -56 c0 -29 -4 -45 -13 -45 -8 0 -11 14 -9 45 2 25 8 45 13 45 5 0 9 -20 9 -45z m120 30 c0 -7 -8 -19 -17 -25 -17 -11 -17 -11 0 -6 9 3 17 1 17 -3 0 -13 -28 -22 -35 -11 -4 6 -14 6 -27 -1 -16 -9 -24 -7 -37 6 -15 16 -14 17 9 11 14 -3 19 -3 11 0 -11 5 -11 8 0 15 7 4 10 11 6 16 -5 4 -12 1 -17 -7 -5 -8 -12 -11 -15 -8 -16 15 10 28 56 28 36 0 49 -4 49 -15z m100 -11 c0 -13 5 -24 12 -24 6 0 8 -3 5 -7 -9 -8 -69 -8 -90 0 -17 6 -23 38 -11 50 3 3 24 5 45 5 34 0 39 -3 39 -24z m82 -24 c-5 -61 -22 -56 -22 6 0 28 4 44 13 44 8 0 11 -15 9 -50z m78 25 c0 -14 5 -25 11 -25 7 0 9 10 7 25 -5 22 -2 25 23 25 27 0 29 -3 29 -36 0 -41 -19 -37 -21 4 -1 21 -2 23 -6 7 -8 -32 -21 -43 -47 -38 -18 4 -22 10 -18 29 2 14 0 24 -7 24 -6 0 -11 -14 -11 -31 0 -17 -4 -28 -10 -24 -5 3 -10 19 -10 36 0 26 3 29 30 29 25 0 30 -4 30 -25z m148 -1 c2 -11 -3 -26 -11 -33 -29 -24 -70 17 -46 46 17 20 53 12 57 -13z m52 15 c0 -16 -20 -49 -30 -49 -5 0 -4 13 1 30 11 29 29 41 29 19z m-243 -76 c-4 -3 -10 -3 -14 0 -3 4 0 7 7 7 7 0 10 -3 7 -7z m110 0 c-4 -3 -10 -3 -14 0 -3 4 0 7 7 7 7 0 10 -3 7 -7z m326 -1214 c59 -7 107 -16 107 -19 0 -3 -48 -12 -107 -19 -60 -8 -113 -16 -120 -18 -6 -2 -13 4 -15 14 -6 29 3 65 16 60 6 -3 59 -10 119 -18z m-3079 -104 c-3 -8 4 -28 16 -45 16 -23 18 -30 7 -30 -8 0 -17 9 -20 21 -6 23 -27 17 -27 -7 0 -8 -10 -14 -25 -14 l-24 0 25 26 c17 16 24 32 21 45 -4 14 0 19 14 19 12 0 16 -5 13 -15z m3190 -1 c3 -8 10 -12 16 -9 6 4 8 11 5 16 -4 5 6 9 22 8 15 0 22 -3 15 -6 -7 -2 -17 -14 -23 -25 -8 -15 -7 -24 7 -39 16 -17 16 -19 1 -19 -10 0 -16 5 -14 11 1 6 -4 14 -10 16 -7 3 -13 -2 -13 -11 0 -9 -8 -16 -20 -16 -20 0 -20 1 -3 26 16 26 16 27 -6 45 -22 18 -22 19 -3 19 11 0 23 -7 26 -16z m-2354 -55 c13 -24 -2 -49 -31 -49 -22 0 -35 36 -19 55 17 21 37 19 50 -6z m65 5 c20 -20 15 -36 -13 -49 -12 -5 -22 -15 -22 -22 0 -7 -4 -13 -8 -13 -8 0 -5 61 3 88 6 17 20 15 40 -4z m45 -19 c0 -21 -5 -35 -12 -35 -8 0 -13 14 -13 35 0 21 5 35 13 35 7 0 12 -14 12 -35z m68 17 c2 -7 -2 -10 -11 -6 -8 3 -18 1 -22 -5 -3 -7 3 -11 15 -11 28 0 21 -24 -7 -28 -26 -4 -41 32 -22 54 14 17 40 15 47 -4z m35 1 c-5 -15 -3 -14 10 2 8 11 19 17 23 12 4 -4 -2 -17 -14 -30 -12 -13 -22 -33 -22 -45 0 -12 -4 -22 -10 -22 -5 0 -10 23 -10 50 0 37 4 50 15 50 9 0 12 -6 8 -17z m71 -20 c-2 -21 -3 -42 -3 -48 -1 -5 -6 -4 -13 3 -7 7 -20 12 -30 12 -10 0 -18 4 -18 9 0 5 9 7 20 4 16 -4 20 0 20 19 0 14 3 28 7 31 14 15 20 5 17 -30z m-179 -53 c3 -5 1 -10 -4 -10 -6 0 -11 5 -11 10 0 6 2 10 4 10 3 0 8 -4 11 -10z"/>
<path d="M1450 2325 c0 -14 5 -25 10 -25 6 0 10 11 10 25 0 14 -4 25 -10 25 -5 0 -10 -11 -10 -25z"/>
<path d="M1516 2334 c-7 -18 0 -34 15 -34 5 0 9 11 9 25 0 28 -15 34 -24 9z"/>
<path d="M2023 2303 c4 -3 10 -3 14 0 3 4 0 7 -7 7 -7 0 -10 -3 -7 -7z"/>
<path d="M1203 2320 c-1 -11 2 -20 5 -20 4 0 8 9 9 20 1 11 -2 20 -5 20 -4 0 -8 -9 -9 -20z"/>
<path d="M1265 2330 c-8 -13 4 -32 16 -25 12 8 12 35 0 35 -6 0 -13 -4 -16 -10z"/>
<path d="M1846 2334 c-7 -18 0 -34 15 -34 5 0 9 11 9 25 0 28 -15 34 -24 9z"/>
<path d="M1733 2333 c4 -3 10 -3 14 0 3 4 0 7 -7 7 -7 0 -10 -3 -7 -7z"/>
<path d="M1735 2310 c3 -5 8 -10 11 -10 3 0 2 5 -1 10 -3 6 -8 10 -11 10 -3 0 -2 -4 1 -10z"/>
<path d="M2156 2334 c-7 -18 0 -34 15 -34 5 0 9 11 9 25 0 28 -15 34 -24 9z"/>
<path d="M1540 2180 c0 -11 5 -20 10 -20 6 0 10 9 10 20 0 11 -4 20 -10 20 -5 0 -10 -9 -10 -20z"/>
<path d="M1151 2193 c-1 -6 -11 -9 -23 -6 -21 4 -21 4 2 -9 25 -14 36 -8 27 15 -4 8 -6 8 -6 0z"/>
<path d="M1368 2183 c7 -3 16 -2 19 1 4 3 -2 6 -13 5 -11 0 -14 -3 -6 -6z"/>
<path d="M1363 2153 c4 -3 10 -3 14 0 3 4 0 7 -7 7 -7 0 -10 -3 -7 -7z"/>
<path d="M1760 2190 c-8 -5 -12 -11 -9 -14 3 -3 14 1 25 9 21 16 8 20 -16 5z"/>
<path d="M1718 2183 c7 -3 16 -2 19 1 4 3 -2 6 -13 5 -11 0 -14 -3 -6 -6z"/>
<path d="M1774 2158 c-4 -7 -3 -8 4 -4 12 7 16 16 8 16 -3 0 -8 -5 -12 -12z"/>
<path d="M2005 2190 c-3 -5 -1 -10 4 -10 6 0 11 5 11 10 0 6 -2 10 -4 10 -3 0 -8 -4 -11 -10z"/>
<path d="M2010 2160 c0 -7 3 -10 7 -7 3 4 3 10 0 14 -4 3 -7 0 -7 -7z"/>
<path d="M2180 2190 c0 -7 3 -10 7 -7 3 4 3 10 0 14 -4 3 -7 0 -7 -7z"/>
<path d="M2180 2160 c0 -7 3 -10 7 -7 3 4 3 10 0 14 -4 3 -7 0 -7 -7z"/>
<path d="M2460 2050 c0 -11 5 -20 10 -20 6 0 10 9 10 20 0 11 -4 20 -10 20 -5 0 -10 -9 -10 -20z"/>
<path d="M2698 2083 c6 -2 18 -2 25 0 6 3 1 5 -13 5 -14 0 -19 -2 -12 -5z"/>
<path d="M2700 2040 c0 -5 5 -10 10 -10 6 0 10 5 10 10 0 6 -4 10 -10 10 -5 0 -10 -4 -10 -10z"/>
<path d="M2633 2033 c4 -3 10 -3 14 0 3 4 0 7 -7 7 -7 0 -10 -3 -7 -7z"/>
<path d="M240 1940 l0 -140 30 0 30 0 0 140 0 140 -30 0 -30 0 0 -140z"/>
<path d="M2810 2049 c0 -24 23 -21 28 4 2 10 -3 17 -12 17 -10 0 -16 -9 -16 -21z"/>
<path d="M3105 2060 c-7 -12 2 -30 16 -30 5 0 9 9 9 20 0 21 -15 27 -25 10z"/>
<path d="M3283 2033 c4 -3 10 -3 14 0 3 4 0 7 -7 7 -7 0 -10 -3 -7 -7z"/>
<path d="M3390 1940 l0 -140 25 0 25 0 0 140 0 140 -25 0 -25 0 0 -140z"/>
<path d="M833 1810 c-1 -11 2 -20 5 -20 4 0 8 9 9 20 1 11 -2 20 -5 20 -4 0 -8 -9 -9 -20z"/>
<path d="M918 1715 c-5 -22 -2 -25 23 -25 24 0 29 4 29 25 0 20 -5 25 -24 25 -17 0 -25 -7 -28 -25z"/>
<path d="M310 909 l0 -209 208 0 c115 0 257 3 315 7 l107 6 0 203 0 203 -315 0 -315 0 0 -210z m290 135 c0 -8 -4 -12 -10 -9 -5 3 -10 10 -10 16 0 5 5 9 10 9 6 0 10 -7 10 -16z m28 -19 c-25 -37 -57 -51 -38 -16 5 11 15 23 20 26 6 4 8 11 5 16 -4 5 3 9 15 9 20 0 20 0 -2 -35z m7 -25 c3 -5 1 -10 -4 -10 -6 0 -11 5 -11 10 0 6 2 10 4 10 3 0 8 -4 11 -10z m35 -20 c0 -11 -4 -20 -10 -20 -5 0 -10 9 -10 20 0 11 5 20 10 20 6 0 10 -9 10 -20z"/>
<path d="M950 914 l0 -204 200 0 200 0 0 204 0 205 -200 -1 -200 -1 0 -203z m148 139 c-2 -5 2 -8 7 -8 6 0 9 3 8 8 -2 4 4 7 12 7 18 0 19 -12 3 -28 -8 -8 -8 -15 2 -27 8 -10 9 -15 1 -15 -6 0 -11 5 -11 11 0 8 -5 7 -15 -1 -20 -16 -32 -5 -16 14 8 10 9 16 1 21 -13 8 -13 25 0 25 6 0 9 -3 8 -7z m72 -75 c0 -16 -3 -19 -11 -11 -6 6 -8 16 -5 22 11 17 16 13 16 -11z m22 -10 c-9 -9 -12 -7 -12 12 0 19 3 21 12 12 9 -9 9 -15 0 -24z"/>
<path d="M311 541 l-2 -149 32 -31 31 -31 209 0 209 0 0 180 0 180 -239 0 -239 0 -1 -149z m149 9 c0 -5 -7 -7 -15 -4 -20 8 -19 -5 2 -28 15 -17 14 -18 -18 -17 -19 1 -26 3 -17 6 16 4 16 6 2 29 -16 24 -16 24 15 24 17 0 31 -4 31 -10z"/>
<path d="M810 510 l0 -180 65 0 65 0 0 180 0 180 -65 0 -65 0 0 -180z"/>
<path d="M950 655 c0 -33 2 -35 34 -35 42 0 102 -21 153 -53 l38 -24 80 73 80 73 -192 1 -193 0 0 -35z"/>
<path d="M1155 514 c-107 -97 -195 -178 -195 -180 0 -2 110 -4 245 -4 l245 0 0 180 0 180 -50 0 -49 0 -196 -176z"/>
<path d="M950 480 c0 -72 3 -130 6 -130 4 0 51 41 106 92 l100 92 -26 21 c-34 27 -112 55 -153 55 l-33 0 0 -130z m97 47 c3 -4 1 -7 -6 -7 -7 0 -9 -9 -5 -25 6 -23 3 -25 -24 -25 -34 0 -47 21 -32 50 10 18 51 22 67 7z"/>
<path d="M990 506 c0 -17 14 -29 23 -20 8 8 -3 34 -14 34 -5 0 -9 -6 -9 -14z"/>
<path d="M273 363 c-7 -2 -13 -18 -13 -34 0 -35 35 -48 72 -27 23 13 23 13 -10 16 -29 3 -31 6 -26 28 6 24 1 27 -23 17z"/>
<path d="M310 350 c0 -13 7 -20 20 -20 23 0 26 10 8 28 -18 18 -28 15 -28 -8z"/>
<path d="M810 280 l0 -40 320 0 320 0 0 40 0 40 -320 0 -320 0 0 -40z"/>
<path d="M543 1823 c4 -3 10 -3 14 0 3 4 0 7 -7 7 -7 0 -10 -3 -7 -7z"/>
<path d="M545 1800 c3 -5 8 -10 11 -10 3 0 2 5 -1 10 -3 6 -8 10 -11 10 -3 0 -2 -4 1 -10z"/>
<path d="M723 1793 c4 -3 10 -3 14 0 3 4 0 7 -7 7 -7 0 -10 -3 -7 -7z"/>
<path d="M2570 1630 c-8 -5 -12 -11 -10 -14 3 -2 14 2 24 10 22 15 10 19 -14 4z"/>
<path d="M2645 1630 c-3 -5 1 -10 9 -10 9 0 16 5 16 10 0 6 -4 10 -9 10 -6 0 -13 -4 -16 -10z"/>
<path d="M2682 1620 c0 -14 2 -19 5 -12 2 6 2 18 0 25 -3 6 -5 1 -5 -13z"/>
<path d="M2643 1603 c4 -3 10 -3 14 0 3 4 0 7 -7 7 -7 0 -10 -3 -7 -7z"/>
<path d="M2976 1624 c-9 -22 -8 -24 9 -24 8 0 15 9 15 20 0 24 -15 27 -24 4z"/>
<path d="M987 194 c-11 -11 -8 -44 3 -44 15 0 24 30 13 41 -5 5 -12 6 -16 3z"/>
<path d="M1054 186 c-4 -10 -2 -22 4 -28 8 -8 13 -7 18 6 4 10 2 22 -4 28 -8 8 -13 7 -18 -6z"/>
<path d="M1163 153 c4 -3 10 -3 14 0 3 4 0 7 -7 7 -7 0 -10 -3 -7 -7z"/>
</g>


</svg>