<!DOCTYPE svg PUBLIC "-//W3C//DTD SVG 20010904//EN" "http://www.w3.org/TR/2001/REC-SVG-20010904/DTD/svg10.dtd">
<svg version="1.0" xmlns="http://www.w3.org/2000/svg" width="309px" height="184px" viewBox="0 0 3090 1840" preserveAspectRatio="xMidYMid meet">
<g id="layer101" fill="#212122" stroke="none">
 <path d="M0 920 l0 -920 1545 0 1545 0 0 920 0 920 -1545 0 -1545 0 0 -920z"/>
 </g>
<g id="layer102" fill="#5f5f5f" stroke="none">
 <path d="M0 920 l0 -920 1545 0 1545 0 0 920 0 920 -1545 0 -1545 0 0 -920z m1647 783 c-4 -3 -10 -3 -14 0 -3 4 0 7 7 7 7 0 10 -3 7 -7z m-1324 -10 l-23 -4 0 -589 c0 -552 1 -589 18 -593 10 -3 6 -5 -10 -6 l-28 -1 0 598 0 598 33 1 c19 0 23 -1 10 -4z m80 -10 c-7 -2 -21 -2 -30 0 -10 3 -4 5 12 5 17 0 24 -2 18 -5z m797 -18 c0 -14 -4 -25 -10 -25 -5 0 -10 11 -10 25 0 14 5 25 10 25 6 0 10 -11 10 -25z m77 -12 c-3 -10 -5 -4 -5 12 0 17 2 24 5 18 2 -7 2 -21 0 -30z m50 30 c-4 -3 -10 -3 -14 0 -3 4 0 7 7 7 7 0 10 -3 7 -7z m33 -8 c0 -8 -4 -15 -10 -15 -5 0 -10 7 -10 15 0 8 5 15 10 15 6 0 10 -7 10 -15z m50 -5 c-24 -15 -36 -11 -14 4 10 8 21 12 24 10 2 -3 -2 -9 -10 -14z m51 3 c13 -16 12 -17 -3 -4 -17 13 -22 21 -14 21 2 0 10 -8 17 -17z m63 2 c-4 -8 -8 -15 -10 -15 -2 0 -4 7 -4 15 0 8 4 15 10 15 5 0 7 -7 4 -15z m72 0 c9 -8 11 -15 6 -15 -5 0 -15 7 -22 15 -7 8 -9 15 -6 15 4 0 14 -7 22 -15z m66 -7 c-7 -7 -12 -8 -12 -2 0 6 3 14 7 17 3 4 9 5 12 2 2 -3 -1 -11 -7 -17z m78 7 c7 -8 8 -15 2 -15 -5 0 -15 7 -22 15 -7 8 -8 15 -2 15 5 0 15 -7 22 -15z m57 -7 c-3 -8 -6 -5 -6 6 -1 11 2 17 5 13 3 -3 4 -12 1 -19z m43 7 c0 -8 -4 -15 -10 -15 -5 0 -10 7 -10 15 0 8 5 15 10 15 6 0 10 -7 10 -15z m80 0 c0 -8 -4 -15 -10 -15 -5 0 -10 7 -10 15 0 8 5 15 10 15 6 0 10 -7 10 -15z m85 -10 c0 -28 -12 -33 -22 -9 -3 9 0 20 8 25 8 5 14 9 14 9 0 0 0 -11 0 -25z m75 -5 c0 -4 -6 -10 -12 -13 -8 -3 -14 5 -14 20 -2 19 1 22 12 12 8 -6 14 -15 14 -19z m27 -7 c-3 -10 -5 -4 -5 12 0 17 2 24 5 18 2 -7 2 -21 0 -30z m51 12 c-3 -3 -9 2 -12 12 -6 14 -5 15 5 6 7 -7 10 -15 7 -18z m39 3 c-3 -8 -6 -5 -6 6 -1 11 2 17 5 13 3 -3 4 -12 1 -19z m60 15 c-4 -3 -10 -3 -14 0 -3 4 0 7 7 7 7 0 10 -3 7 -7z m30 -15 c-3 -8 -6 -5 -6 6 -1 11 2 17 5 13 3 -3 4 -12 1 -19z m54 5 c13 -16 12 -17 -3 -4 -17 13 -22 21 -14 21 2 0 10 -8 17 -17z m63 2 c-4 -8 -8 -15 -10 -15 -2 0 -4 7 -4 15 0 8 4 15 10 15 5 0 7 -7 4 -15z m33 -7 c-3 -8 -6 -5 -6 6 -1 11 2 17 5 13 3 -3 4 -12 1 -19z m103 -3 c0 -14 -4 -25 -10 -25 -5 0 -10 11 -10 25 0 14 5 25 10 25 6 0 10 -11 10 -25z m44 10 c-25 -19 -40 -19 -24 0 7 8 20 15 28 15 13 0 12 -3 -4 -15z m53 8 c-4 -3 -10 -3 -14 0 -3 4 0 7 7 7 7 0 10 -3 7 -7z m30 -15 c-3 -8 -6 -5 -6 6 -1 11 2 17 5 13 3 -3 4 -12 1 -19z m53 7 c0 -8 -4 -15 -10 -15 -5 0 -10 7 -10 15 0 8 5 15 10 15 6 0 10 -7 10 -15z m40 0 c0 -8 -4 -15 -10 -15 -5 0 -10 7 -10 15 0 8 5 15 10 15 6 0 10 -7 10 -15z m40 0 c0 -8 -4 -15 -10 -15 -5 0 -10 7 -10 15 0 8 5 15 10 15 6 0 10 -7 10 -15z m40 0 c-7 -9 -15 -13 -17 -11 -7 7 7 26 19 26 6 0 6 -6 -2 -15z m74 0 c3 -8 1 -15 -4 -15 -6 0 -10 7 -10 15 0 8 2 15 4 15 2 0 6 -7 10 -15z m70 0 c-4 -8 -11 -15 -16 -15 -6 0 -5 6 2 15 7 8 14 15 16 15 2 0 1 -7 -2 -15z m-2854 -2 c0 -10 -32 -43 -42 -43 -5 0 -1 11 9 25 17 23 33 32 33 18z m333 0 c-7 -2 -19 -2 -25 0 -7 3 -2 5 12 5 14 0 19 -2 13 -5z m70 -10 c-7 -2 -19 -2 -25 0 -7 3 -2 5 12 5 14 0 19 -2 13 -5z m70 -10 c-7 -2 -21 -2 -30 0 -10 3 -4 5 12 5 17 0 24 -2 18 -5z m647 -3 c0 -5 -4 -10 -10 -10 -5 0 -10 5 -10 10 0 6 5 10 10 10 6 0 10 -4 10 -10z m-587 -7 c-7 -2 -19 -2 -25 0 -7 3 -2 5 12 5 14 0 19 -2 13 -5z m70 -10 c-7 -2 -21 -2 -30 0 -10 3 -4 5 12 5 17 0 24 -2 18 -5z m60 -10 c-7 -2 -19 -2 -25 0 -7 3 -2 5 12 5 14 0 19 -2 13 -5z m-599 -45 c4 -17 2 -28 -4 -28 -7 0 -9 -177 -8 -555 2 -305 0 -555 -4 -555 -5 0 -8 250 -8 555 0 325 -4 555 -9 555 -5 0 -4 15 2 35 11 38 21 36 31 -7z m679 35 c-7 -2 -21 -2 -30 0 -10 3 -4 5 12 5 17 0 24 -2 18 -5z m65 -10 c-10 -2 -26 -2 -35 0 -10 3 -2 5 17 5 19 0 27 -2 18 -5z m65 -10 c-7 -2 -21 -2 -30 0 -10 3 -4 5 12 5 17 0 24 -2 18 -5z m70 -10 c-7 -2 -19 -2 -25 0 -7 3 -2 5 12 5 14 0 19 -2 13 -5z m70 -10 c-7 -2 -21 -2 -30 0 -10 3 -4 5 12 5 17 0 24 -2 18 -5z m60 -10 c-7 -2 -19 -2 -25 0 -7 3 -2 5 12 5 14 0 19 -2 13 -5z m70 -10 c-7 -2 -21 -2 -30 0 -10 3 -4 5 12 5 17 0 24 -2 18 -5z m60 -10 c-7 -2 -19 -2 -25 0 -7 3 -2 5 12 5 14 0 19 -2 13 -5z m-373 -13 c0 -5 -11 -10 -25 -10 -14 0 -25 5 -25 10 0 6 11 10 25 10 14 0 25 -4 25 -10z m443 3 c-7 -2 -19 -2 -25 0 -7 3 -2 5 12 5 14 0 19 -2 13 -5z m70 -10 c-7 -2 -21 -2 -30 0 -10 3 -4 5 12 5 17 0 24 -2 18 -5z m60 -10 c-7 -2 -19 -2 -25 0 -7 3 -2 5 12 5 14 0 19 -2 13 -5z m70 -10 c-7 -2 -21 -2 -30 0 -10 3 -4 5 12 5 17 0 24 -2 18 -5z m60 -10 c-7 -2 -19 -2 -25 0 -7 3 -2 5 12 5 14 0 19 -2 13 -5z m70 -10 c-7 -2 -19 -2 -25 0 -7 3 -2 5 12 5 14 0 19 -2 13 -5z m70 -10 c-7 -2 -21 -2 -30 0 -10 3 -4 5 12 5 17 0 24 -2 18 -5z m70 -10 c-7 -2 -21 -2 -30 0 -10 3 -4 5 12 5 17 0 24 -2 18 -5z m60 -10 c-7 -2 -21 -2 -30 0 -10 3 -4 5 12 5 17 0 24 -2 18 -5z m67 -603 l0 -600 -27 1 c-17 1 -21 3 -10 6 16 4 17 41 17 593 0 461 -3 589 -12 593 -7 3 -3 6 10 6 l22 1 0 -600z m-480 563 c0 -10 -32 -43 -42 -43 -5 0 -1 11 9 25 17 23 33 32 33 18z m67 -40 c-4 -3 -7 0 -7 7 0 7 3 10 7 7 3 -4 3 -10 0 -14z m-692 -14 c109 -13 235 -52 260 -79 18 -20 18 -20 -81 -22 l-99 -2 98 -3 c86 -3 98 -6 95 -21 -5 -27 -72 -43 -167 -40 -86 3 -86 3 -102 35 -18 35 -29 34 -29 -4 0 -26 6 -26 -115 3 -105 24 -145 48 -145 84 0 16 5 32 12 36 39 24 141 29 273 13z m605 -9 c-36 -12 -60 -12 -60 0 0 6 19 10 43 9 36 -1 38 -2 17 -9z m-613 -152 c-3 -8 -6 -5 -6 6 -1 11 2 17 5 13 3 -3 4 -12 1 -19z m1050 5 c-4 -3 -7 0 -7 7 0 7 3 10 7 7 3 -4 3 -10 0 -14z m-457 -23 c21 -7 18 -8 -18 -9 -26 -1 -41 3 -37 9 7 11 19 11 55 0z m-3 -55 c-15 -14 -33 -25 -38 -25 -6 0 3 11 18 25 15 13 33 24 38 24 6 0 -3 -11 -18 -24z m70 -22 c-4 -3 -10 -3 -14 0 -3 4 0 7 7 7 7 0 10 -3 7 -7z m180 -25 c-3 -8 -6 -5 -6 6 -1 11 2 17 5 13 3 -3 4 -12 1 -19z m47 7 c3 -8 1 -15 -3 -15 -5 0 -11 7 -15 15 -3 8 -1 15 3 15 5 0 11 -7 15 -15z m-874 -265 c0 -10 -4 -21 -9 -24 -10 -7 -23 33 -15 46 8 13 24 -1 24 -22z m40 -65 c13 -14 20 -25 16 -25 -5 0 -21 11 -38 25 -16 14 -23 25 -16 25 8 0 25 -11 38 -25z m-193 -162 c-4 -3 -7 0 -7 7 0 7 3 10 7 7 3 -4 3 -10 0 -14z m272 -91 c1 -7 -3 -10 -9 -7 -5 3 -10 21 -9 38 1 31 1 31 9 7 4 -14 8 -31 9 -38z m40 31 c0 -5 -4 -17 -9 -28 -8 -18 -9 -17 -9 8 -1 15 4 27 9 27 6 0 10 -3 9 -7z m-671 -40 c-10 -2 -26 -2 -35 0 -10 3 -2 5 17 5 19 0 27 -2 18 -5z m55 -10 c-7 -2 -19 -2 -25 0 -7 3 -2 5 12 5 14 0 19 -2 13 -5z m70 -10 c-7 -2 -21 -2 -30 0 -10 3 -4 5 12 5 17 0 24 -2 18 -5z m70 -10 c-7 -2 -21 -2 -30 0 -10 3 -4 5 12 5 17 0 24 -2 18 -5z m70 -10 c-7 -2 -19 -2 -25 0 -7 3 -2 5 12 5 14 0 19 -2 13 -5z m70 -10 c-7 -2 -21 -2 -30 0 -10 3 -4 5 12 5 17 0 24 -2 18 -5z m60 -10 c-7 -2 -19 -2 -25 0 -7 3 -2 5 12 5 14 0 19 -2 13 -5z m-476 -10 c-4 -3 -10 -3 -14 0 -3 4 0 7 7 7 7 0 10 -3 7 -7z m546 0 c-7 -2 -21 -2 -30 0 -10 3 -4 5 12 5 17 0 24 -2 18 -5z m60 -10 c-7 -2 -19 -2 -25 0 -7 3 -2 5 12 5 14 0 19 -2 13 -5z m70 -10 c-7 -2 -19 -2 -25 0 -7 3 -2 5 12 5 14 0 19 -2 13 -5z m-476 -10 c-4 -3 -10 -3 -14 0 -3 4 0 7 7 7 7 0 10 -3 7 -7z m546 0 c-7 -2 -21 -2 -30 0 -10 3 -4 5 12 5 17 0 24 -2 18 -5z m60 -10 c-7 -2 -19 -2 -25 0 -7 3 -2 5 12 5 14 0 19 -2 13 -5z m-476 -10 c-4 -3 -10 -3 -14 0 -3 4 0 7 7 7 7 0 10 -3 7 -7z m546 0 c-7 -2 -21 -2 -30 0 -10 3 -4 5 12 5 17 0 24 -2 18 -5z m60 -10 c-7 -2 -19 -2 -25 0 -7 3 -2 5 12 5 14 0 19 -2 13 -5z m70 -10 c-7 -2 -19 -2 -25 0 -7 3 -2 5 12 5 14 0 19 -2 13 -5z m70 -10 c-7 -2 -21 -2 -30 0 -10 3 -4 5 12 5 17 0 24 -2 18 -5z m60 -10 c-7 -2 -19 -2 -25 0 -7 3 -2 5 12 5 14 0 19 -2 13 -5z m80 -10 c-7 -2 -21 -2 -30 0 -10 3 -4 5 12 5 17 0 24 -2 18 -5z m-476 -10 c-4 -3 -10 -3 -14 0 -3 4 0 7 7 7 7 0 10 -3 7 -7z m546 0 c-7 -2 -21 -2 -30 0 -10 3 -4 5 12 5 17 0 24 -2 18 -5z m60 -10 c-7 -2 -19 -2 -25 0 -7 3 -2 5 12 5 14 0 19 -2 13 -5z m-476 -10 c-4 -3 -10 -3 -14 0 -3 4 0 7 7 7 7 0 10 -3 7 -7z m546 0 c-7 -2 -21 -2 -30 0 -10 3 -4 5 12 5 17 0 24 -2 18 -5z m60 -10 c-7 -2 -21 -2 -30 0 -10 3 -4 5 12 5 17 0 24 -2 18 -5z m70 -10 c-7 -2 -19 -2 -25 0 -7 3 -2 5 12 5 14 0 19 -2 13 -5z m-476 -10 c-4 -3 -10 -3 -14 0 -3 4 0 7 7 7 7 0 10 -3 7 -7z m546 0 c-7 -2 -21 -2 -30 0 -10 3 -4 5 12 5 17 0 24 -2 18 -5z m-416 -20 c-4 -3 -10 -3 -14 0 -3 4 0 7 7 7 7 0 10 -3 7 -7z m200 -30 c-4 -3 -10 -3 -14 0 -3 4 0 7 7 7 7 0 10 -3 7 -7z m130 -20 c-4 -3 -10 -3 -14 0 -3 4 0 7 7 7 7 0 10 -3 7 -7z m333 -44 c19 -5 13 -7 -27 -8 -48 -1 -71 8 -56 22 6 6 29 2 83 -14z m175 -74 c-16 -14 -34 -25 -40 -25 -5 1 4 12 20 25 17 14 35 25 40 25 6 -1 -3 -12 -20 -25z"/>
 <path d="M953 1263 c4 -3 10 -3 14 0 3 4 0 7 -7 7 -7 0 -10 -3 -7 -7z"/>
 </g>
<g id="layer103" fill="#818180" stroke="none">
 <path d="M0 920 l0 -920 1545 0 1545 0 0 920 0 920 -1545 0 -1545 0 0 -920z m1647 783 c-4 -3 -10 -3 -14 0 -3 4 0 7 7 7 7 0 10 -3 7 -7z m1320 0 c-4 -3 -10 -3 -14 0 -3 4 0 7 7 7 7 0 10 -3 7 -7z m-2141 -78 c274 -41 506 -77 514 -79 44 -11 -46 -4 -153 13 -67 11 -140 22 -162 25 -22 3 -114 16 -205 30 -284 44 -503 76 -512 76 -4 0 -8 -265 -8 -590 0 -324 2 -590 5 -590 2 0 152 -22 332 -50 389 -59 1333 -200 1339 -200 2 0 4 265 4 589 l0 589 -22 5 c-13 3 -153 25 -313 48 -159 24 -283 45 -274 47 9 2 152 -17 317 -43 165 -25 303 -45 306 -45 3 0 6 -270 6 -600 0 -569 -1 -600 -18 -600 -10 0 -123 16 -252 35 -129 20 -323 49 -430 65 -107 16 -377 56 -599 89 -221 34 -407 61 -412 61 -5 0 -9 252 -9 600 l0 600 23 0 c13 0 248 -34 523 -75z m-693 45 c3 -11 2 -18 -3 -15 -4 3 -13 -2 -20 -10 -7 -8 -19 -15 -28 -15 -12 0 -11 5 6 23 12 13 19 27 15 30 -3 4 1 7 9 7 9 0 18 -9 21 -20z m1067 -5 c0 -14 -4 -25 -10 -25 -5 0 -10 11 -10 25 0 14 5 25 10 25 6 0 10 -11 10 -25z m90 0 c0 -14 -4 -25 -10 -25 -5 0 -10 11 -10 25 0 14 5 25 10 25 6 0 10 -11 10 -25z m40 16 c0 -6 -4 -12 -8 -15 -5 -3 -9 1 -9 9 0 8 4 15 9 15 4 0 8 -4 8 -9z m30 -5 c0 -8 -4 -18 -10 -21 -5 -3 -10 3 -10 14 0 12 5 21 10 21 6 0 10 -6 10 -14z m60 2 c0 -4 -2 -8 -4 -8 -2 0 -11 -2 -19 -5 -7 -3 -14 0 -14 7 0 8 9 14 19 14 10 0 18 -4 18 -8z m50 -3 c7 -9 10 -18 7 -22 -8 -7 -37 15 -37 28 0 14 16 11 30 -6z m58 1 c-7 -8 -16 -12 -21 -9 -11 7 2 23 19 23 12 0 12 -2 2 -14z m70 2 c7 -7 12 -16 12 -20 0 -15 -15 -8 -28 12 -13 22 -3 27 16 8z m70 -8 c-13 -20 -28 -27 -28 -12 0 10 22 32 32 32 5 0 3 -9 -4 -20z m77 0 c10 -11 14 -20 8 -20 -5 0 -18 9 -28 20 -10 11 -14 20 -8 20 5 0 18 -9 28 -20z m55 0 c0 -11 -4 -20 -10 -20 -5 0 -10 9 -10 20 0 11 5 20 10 20 6 0 10 -9 10 -20z m38 3 c-2 -9 -8 -18 -15 -20 -7 -3 -9 3 -6 16 6 25 26 28 21 4z m49 10 c-4 -3 -10 -3 -14 0 -3 4 0 7 7 7 7 0 10 -3 7 -7z m33 -7 c0 -8 -4 -18 -10 -21 -5 -3 -10 3 -10 14 0 12 5 21 10 21 6 0 10 -6 10 -14z m91 5 c-8 -5 -11 -16 -8 -25 4 -9 2 -16 -4 -16 -5 0 -12 7 -16 16 -6 15 11 34 32 34 6 0 4 -4 -4 -9z m58 0 c8 -5 11 -16 8 -25 -9 -24 -24 -19 -29 9 -6 27 -1 30 21 16z m51 -16 c0 -14 -4 -25 -10 -25 -5 0 -10 11 -10 25 0 14 5 25 10 25 6 0 10 -11 10 -25z m36 -4 c-12 -19 -24 -12 -19 10 4 13 9 17 15 11 6 -6 7 -15 4 -21z m44 9 c0 -11 -4 -20 -10 -20 -5 0 -10 9 -10 20 0 11 5 20 10 20 6 0 10 -9 10 -20z m60 5 c0 -8 -4 -15 -8 -15 -5 0 -9 7 -9 15 0 8 4 15 9 15 4 0 8 -7 8 -15z m33 -5 c-3 -11 -9 -20 -14 -20 -4 0 -7 9 -6 20 1 11 7 20 13 20 7 0 10 -8 7 -20z m57 5 c7 -9 10 -18 7 -22 -8 -7 -37 15 -37 28 0 14 16 11 30 -6z m60 1 c0 -8 -4 -18 -10 -21 -5 -3 -10 3 -10 14 0 12 5 21 10 21 6 0 10 -6 10 -14z m30 -6 c0 -11 -2 -20 -4 -20 -2 0 -6 9 -9 20 -3 11 -1 20 4 20 5 0 9 -9 9 -20z m103 8 c4 -10 7 -10 18 0 7 6 20 12 28 12 10 0 7 -6 -9 -17 -14 -10 -28 -17 -32 -15 -5 1 -8 -2 -8 -8 0 -21 -18 -9 -22 15 -5 26 16 37 25 13z m97 -3 c0 -8 -4 -15 -8 -15 -5 0 -9 7 -9 15 0 8 4 15 9 15 4 0 8 -7 8 -15z m33 -5 c-3 -11 -9 -20 -14 -20 -4 0 -7 9 -6 20 1 11 7 20 13 20 7 0 10 -8 7 -20z m47 0 c0 -11 -4 -20 -10 -20 -5 0 -10 9 -10 20 0 11 5 20 10 20 6 0 10 -9 10 -20z m38 3 c-2 -9 -8 -18 -15 -20 -7 -3 -9 3 -6 16 6 25 26 28 21 4z m40 0 c-2 -9 -8 -18 -15 -20 -7 -3 -9 3 -6 16 6 25 26 28 21 4z m46 2 c-4 -8 -10 -15 -15 -15 -5 0 -9 7 -9 15 0 8 7 15 15 15 9 0 12 -6 9 -15z m72 0 c-4 -24 -16 -30 -16 -7 0 12 4 22 9 22 5 0 8 -7 7 -15z m64 -10 c-7 -8 -17 -15 -23 -15 -5 0 -2 9 8 20 21 23 35 19 15 -5z m-1730 -16 c0 -14 -17 -10 -23 5 -4 10 -1 13 9 9 7 -3 14 -9 14 -14z m977 4 c-4 -3 -10 -3 -14 0 -3 4 0 7 7 7 7 0 10 -3 7 -7z m-2070 -20 c-4 -3 -10 -3 -14 0 -3 4 0 7 7 7 7 0 10 -3 7 -7z m37 -44 c3 -18 1 -37 -4 -44 -7 -8 -9 -198 -8 -559 2 -300 0 -546 -4 -546 -5 0 -8 250 -8 555 0 319 -4 555 -9 555 -5 0 -4 17 1 40 12 45 23 45 32 -1z m769 -49 c-5 -21 -53 -30 -53 -10 0 6 9 10 19 10 11 0 23 5 26 10 10 16 14 12 8 -10z m557 -122 c0 -6 8 -21 18 -32 17 -21 17 -21 -5 -2 -20 17 -23 17 -29 2 -3 -9 -16 -16 -27 -16 -21 0 -21 0 1 16 12 8 22 22 22 30 0 8 5 14 10 14 6 0 10 -5 10 -12z m70 -38 c0 -5 -5 -10 -11 -10 -5 0 -7 5 -4 10 3 6 8 10 11 10 2 0 4 -4 4 -10z m40 0 c0 -5 -5 -10 -11 -10 -5 0 -7 5 -4 10 3 6 8 10 11 10 2 0 4 -4 4 -10z m-715 -21 c155 -22 255 -67 255 -114 0 -41 -25 -50 -151 -54 -107 -3 -118 -1 -122 15 -3 11 -5 -65 -6 -168 0 -105 3 -189 8 -193 6 -3 6 -17 1 -35 -6 -21 -5 -30 3 -30 13 0 57 -40 57 -53 0 -5 -16 3 -35 17 -34 27 -50 17 -22 -13 10 -11 10 -13 0 -7 -10 5 -13 -10 -13 -65 0 -40 -2 -70 -5 -67 -3 3 -6 144 -5 312 0 207 -3 305 -10 301 -16 -10 -161 24 -211 49 -38 20 -44 27 -47 59 -3 33 -1 37 30 46 44 12 187 13 273 0z m595 -9 c-38 -12 -99 -12 -80 0 8 5 35 9 60 9 37 -1 41 -2 20 -9z m-193 -26 c-3 -3 -12 -4 -19 -1 -8 3 -5 6 6 6 11 1 17 -2 13 -5z m623 -109 c0 -8 -4 -15 -10 -15 -5 0 -7 7 -4 15 4 8 8 15 10 15 2 0 4 -7 4 -15z m-717 -2 c-7 -2 -19 -2 -25 0 -7 3 -2 5 12 5 14 0 19 -2 13 -5z m130 -20 c-7 -2 -19 -2 -25 0 -7 3 -2 5 12 5 14 0 19 -2 13 -5z m132 -13 c27 -7 25 -8 -17 -9 -27 0 -48 4 -48 9 0 11 21 11 65 0z m-37 -42 c9 -9 15 -9 24 0 7 7 19 12 28 12 9 0 2 -11 -20 -30 -40 -34 -74 -43 -46 -11 17 18 17 20 -1 30 -10 6 -13 11 -7 11 5 0 15 -5 22 -12z m102 -38 c0 -5 -4 -10 -10 -10 -5 0 -10 5 -10 10 0 6 5 10 10 10 6 0 10 -4 10 -10z m40 0 c0 -5 -4 -10 -10 -10 -5 0 -10 5 -10 10 0 6 5 10 10 10 6 0 10 -4 10 -10z m144 -29 c-9 -10 -26 18 -18 30 5 9 9 8 14 -7 4 -10 6 -21 4 -23z m42 17 c0 -21 -20 -18 -24 4 -2 8 3 15 10 15 8 0 14 -9 14 -19z m-989 -300 c-3 -8 -6 -5 -6 6 -1 11 2 17 5 13 3 -3 4 -12 1 -19z m190 -15 c-4 -3 -10 -3 -14 0 -3 4 0 7 7 7 7 0 10 -3 7 -7z m-194 -18 c-3 -9 -8 -14 -10 -11 -3 3 -2 9 2 15 9 16 15 13 8 -4z m224 -22 c-4 -3 -10 -3 -14 0 -3 4 0 7 7 7 7 0 10 -3 7 -7z m40 0 c-4 -3 -10 -3 -14 0 -3 4 0 7 7 7 7 0 10 -3 7 -7z m-300 -135 c-3 -8 -6 -5 -6 6 -1 11 2 17 5 13 3 -3 4 -12 1 -19z m269 -76 c2 -18 0 -32 -5 -32 -5 0 -11 16 -13 35 -2 20 0 34 5 32 6 -2 11 -17 13 -35z m41 -3 c-5 -31 -14 -32 -19 -1 -3 22 -1 29 9 25 7 -3 11 -13 10 -24z m-810 -85 c-3 -3 -12 -4 -19 -1 -8 3 -5 6 6 6 11 1 17 -2 13 -5z m66 -11 c-7 -2 -19 -2 -25 0 -7 3 -2 5 12 5 14 0 19 -2 13 -5z m64 -9 c-3 -3 -12 -4 -19 -1 -8 3 -5 6 6 6 11 1 17 -2 13 -5z m76 -11 c-7 -2 -19 -2 -25 0 -7 3 -2 5 12 5 14 0 19 -2 13 -5z m60 -10 c-7 -2 -19 -2 -25 0 -7 3 -2 5 12 5 14 0 19 -2 13 -5z m70 -10 c-7 -2 -19 -2 -25 0 -7 3 -2 5 12 5 14 0 19 -2 13 -5z m60 -10 c-7 -2 -19 -2 -25 0 -7 3 -2 5 12 5 14 0 19 -2 13 -5z m70 -10 c-7 -2 -19 -2 -25 0 -7 3 -2 5 12 5 14 0 19 -2 13 -5z m70 -10 c-7 -2 -19 -2 -25 0 -7 3 -2 5 12 5 14 0 19 -2 13 -5z m60 -10 c-7 -2 -19 -2 -25 0 -7 3 -2 5 12 5 14 0 19 -2 13 -5z m70 -10 c-7 -2 -19 -2 -25 0 -7 3 -2 5 12 5 14 0 19 -2 13 -5z m70 -10 c-7 -2 -19 -2 -25 0 -7 3 -2 5 12 5 14 0 19 -2 13 -5z m70 -10 c-7 -2 -19 -2 -25 0 -7 3 -2 5 12 5 14 0 19 -2 13 -5z m60 -10 c-7 -2 -19 -2 -25 0 -7 3 -2 5 12 5 14 0 19 -2 13 -5z m70 -10 c-7 -2 -19 -2 -25 0 -7 3 -2 5 12 5 14 0 19 -2 13 -5z m60 -10 c-7 -2 -19 -2 -25 0 -7 3 -2 5 12 5 14 0 19 -2 13 -5z m74 -9 c-3 -3 -12 -4 -19 -1 -8 3 -5 6 6 6 11 1 17 -2 13 -5z m66 -11 c-7 -2 -19 -2 -25 0 -7 3 -2 5 12 5 14 0 19 -2 13 -5z m64 -9 c-3 -3 -12 -4 -19 -1 -8 3 -5 6 6 6 11 1 17 -2 13 -5z m66 -11 c-7 -2 -19 -2 -25 0 -7 3 -2 5 12 5 14 0 19 -2 13 -5z m64 -9 c-3 -3 -12 -4 -19 -1 -8 3 -5 6 6 6 11 1 17 -2 13 -5z m76 -11 c-7 -2 -19 -2 -25 0 -7 3 -2 5 12 5 14 0 19 -2 13 -5z m60 -10 c-7 -2 -19 -2 -25 0 -7 3 -2 5 12 5 14 0 19 -2 13 -5z m70 -10 c-7 -2 -19 -2 -25 0 -7 3 -2 5 12 5 14 0 19 -2 13 -5z m60 -10 c-7 -2 -19 -2 -25 0 -7 3 -2 5 12 5 14 0 19 -2 13 -5z m70 -10 c-7 -2 -19 -2 -25 0 -7 3 -2 5 12 5 14 0 19 -2 13 -5z m70 -10 c-7 -2 -19 -2 -25 0 -7 3 -2 5 12 5 14 0 19 -2 13 -5z m60 -10 c-7 -2 -19 -2 -25 0 -7 3 -2 5 12 5 14 0 19 -2 13 -5z m112 -7 l50 -14 -62 -1 c-58 -1 -73 5 -56 22 8 9 10 9 68 -7z m212 -64 c-13 -15 -14 -21 -4 -32 9 -11 7 -11 -7 0 -15 12 -20 12 -23 3 -3 -7 -11 -13 -19 -13 -32 0 26 57 60 59 5 1 2 -7 -7 -17z"/>
 </g>
<g id="layer104" fill="#a7a7a7" stroke="none">
 <path d="M0 920 l0 -920 1545 0 1545 0 0 920 0 920 -1545 0 -1545 0 0 -920z m865 700 c716 -106 1128 -170 1131 -173 2 -2 3 -274 2 -603 l-3 -600 -250 38 c-137 20 -326 49 -420 62 -93 14 -365 55 -603 91 -238 36 -435 65 -437 65 -7 0 -6 1195 0 1202 3 2 87 -8 187 -23 101 -15 277 -41 393 -59z m295 86 c0 -3 -5 -8 -12 -12 -7 -4 -8 -3 -4 4 7 12 16 16 16 8z m487 -3 c-4 -3 -10 -3 -14 0 -3 4 0 7 7 7 7 0 10 -3 7 -7z m1320 0 c-4 -3 -10 -3 -14 0 -3 4 0 7 7 7 7 0 10 -3 7 -7z m-2837 -25 c0 -6 7 -20 17 -30 9 -10 11 -18 6 -18 -6 0 -14 7 -17 16 -6 16 -8 16 -24 0 -26 -23 -50 -22 -29 2 10 10 17 24 17 30 0 7 7 12 15 12 8 0 15 -5 15 -12z m1070 -13 c0 -16 6 -25 15 -25 18 0 20 16 3 23 -8 3 -7 6 4 6 23 1 34 -19 17 -30 -8 -5 -24 -9 -36 -9 -19 0 -23 6 -23 30 0 17 5 30 10 30 6 0 10 -11 10 -25z m90 1 c0 -34 -17 -42 -22 -11 -5 25 -1 35 14 35 4 0 8 -11 8 -24z m40 15 c0 -6 -4 -13 -10 -16 -5 -3 -10 1 -10 9 0 9 5 16 10 16 6 0 10 -4 10 -9z m30 -5 c0 -8 -4 -18 -10 -21 -5 -3 -10 3 -10 14 0 12 5 21 10 21 6 0 10 -6 10 -14z m60 8 c0 -6 -30 -37 -31 -32 -6 27 -4 34 12 35 11 1 19 -1 19 -3z m63 -1 c-7 -2 -9 -11 -6 -19 8 -20 -11 -17 -31 5 -17 19 -17 20 16 19 18 -1 28 -3 21 -5z m54 -4 c-10 -6 -14 -15 -10 -22 4 -7 0 -6 -10 2 -21 16 -13 31 16 31 20 -1 20 -2 4 -11z m61 -1 c7 -7 12 -16 12 -20 0 -15 -15 -8 -28 12 -13 22 -3 27 16 8z m72 -8 c-11 -20 -30 -28 -30 -12 0 11 22 32 32 32 5 0 4 -9 -2 -20z m75 0 c10 -11 14 -20 8 -20 -5 0 -18 9 -28 20 -10 11 -14 20 -8 20 5 0 18 -9 28 -20z m61 3 c13 -17 13 -17 14 0 0 9 5 17 11 17 24 0 2 -35 -24 -38 -22 -3 -27 1 -27 17 0 26 9 27 26 4z m84 8 c0 -6 -4 -13 -10 -16 -5 -3 -10 1 -10 9 0 9 5 16 10 16 6 0 10 -4 10 -9z m30 -5 c0 -8 -4 -18 -10 -21 -5 -3 -10 3 -10 14 0 12 5 21 10 21 6 0 10 -6 10 -14z m92 2 c-18 -18 -15 -28 11 -38 13 -5 16 -9 6 -9 -8 -1 -24 5 -34 13 -22 16 -14 46 12 46 13 0 14 -3 5 -12z m57 3 c8 -5 11 -16 8 -25 -9 -24 -24 -19 -29 9 -6 27 -1 30 21 16z m51 -15 c0 -14 -4 -28 -10 -31 -6 -4 -10 7 -10 24 0 17 5 31 10 31 6 0 10 -11 10 -24z m36 -5 c-12 -19 -24 -12 -19 10 4 13 9 17 15 11 6 -6 7 -15 4 -21z m44 9 c0 -11 -4 -20 -10 -20 -5 0 -10 9 -10 20 0 11 5 20 10 20 6 0 10 -9 10 -20z m98 3 c-4 -23 -28 -29 -29 -6 0 16 -1 16 -9 -2 -9 -21 -9 -21 -15 8 -2 13 4 17 27 17 22 0 29 -4 26 -17z m59 -5 c2 -24 -10 -23 -32 2 -18 20 -18 20 6 18 16 -1 26 -9 26 -20z m93 8 c0 -8 -4 -18 -10 -21 -5 -3 -10 1 -10 9 0 9 -4 16 -10 16 -5 0 -10 -7 -10 -15 0 -8 -4 -15 -10 -15 -5 0 -10 9 -10 20 0 16 7 20 30 20 19 0 30 -5 30 -14z m93 2 c4 -10 7 -10 18 0 7 6 20 12 28 12 11 0 9 -6 -7 -21 -12 -11 -27 -17 -32 -14 -6 3 -10 -1 -10 -9 0 -9 -7 -16 -15 -16 -10 0 -15 10 -15 30 0 30 24 43 33 18z m130 -8 c-7 -25 -23 -26 -24 -2 0 14 -2 14 -9 -3 -9 -21 -9 -21 -15 8 -2 13 4 17 25 17 23 0 27 -3 23 -20z m47 0 c0 -11 -4 -20 -10 -20 -5 0 -10 9 -10 20 0 11 5 20 10 20 6 0 10 -9 10 -20z m38 3 c-2 -9 -8 -18 -15 -20 -7 -3 -9 3 -6 16 6 25 26 28 21 4z m40 0 c-2 -9 -8 -18 -15 -20 -7 -3 -9 3 -6 16 6 25 26 28 21 4z m60 10 c-10 -2 -18 -11 -18 -19 0 -8 -4 -12 -10 -9 -21 13 -10 35 18 34 16 -1 20 -3 10 -6z m62 -7 c0 -8 6 -16 13 -19 6 -2 0 -4 -15 -4 -21 0 -28 4 -28 18 0 11 7 19 15 19 8 0 15 -6 15 -14z m73 7 c4 -3 -1 -12 -11 -19 -25 -20 -34 -17 -20 6 13 21 21 24 31 13z m-1883 -17 c0 -3 -5 -8 -12 -12 -7 -4 -8 -3 -4 4 7 12 16 16 16 8z m1760 0 c0 -3 -4 -8 -10 -11 -5 -3 -10 -1 -10 4 0 6 5 11 10 11 6 0 10 -2 10 -4z m-643 -13 c-4 -3 -10 -3 -14 0 -3 4 0 7 7 7 7 0 10 -3 7 -7z m368 -13 c3 -5 1 -10 -4 -10 -6 0 -11 5 -11 10 0 6 2 10 4 10 3 0 8 -4 11 -10z m-1525 -4 c0 -2 -8 -10 -17 -17 -16 -13 -17 -12 -4 4 13 16 21 21 21 13z m-877 -607 l2 -584 35 -6 c26 -5 29 -7 10 -8 -14 0 -35 2 -47 5 l-23 6 0 553 c0 354 -4 555 -10 557 -6 2 -5 17 2 41 7 22 15 34 20 29 5 -5 10 -267 11 -593z m125 -606 c-10 -2 -26 -2 -35 0 -10 3 -2 5 17 5 19 0 27 -2 18 -5z m65 -10 c-7 -2 -21 -2 -30 0 -10 3 -4 5 12 5 17 0 24 -2 18 -5z m112 -12 c26 -6 31 -9 15 -9 -14 -1 -43 3 -65 7 -26 6 -31 9 -15 9 14 1 43 -3 65 -7z m93 -18 c-10 -2 -26 -2 -35 0 -10 3 -2 5 17 5 19 0 27 -2 18 -5z m65 -10 c-7 -2 -21 -2 -30 0 -10 3 -4 5 12 5 17 0 24 -2 18 -5z m65 -10 c-10 -2 -26 -2 -35 0 -10 3 -2 5 17 5 19 0 27 -2 18 -5z m70 -10 c-10 -2 -26 -2 -35 0 -10 3 -2 5 17 5 19 0 27 -2 18 -5z m65 -10 c-7 -2 -21 -2 -30 0 -10 3 -4 5 12 5 17 0 24 -2 18 -5z m65 -10 c-10 -2 -26 -2 -35 0 -10 3 -2 5 17 5 19 0 27 -2 18 -5z m70 -10 c-10 -2 -26 -2 -35 0 -10 3 -2 5 17 5 19 0 27 -2 18 -5z m107 -12 c26 -6 31 -9 15 -9 -14 -1 -43 3 -65 7 -26 6 -31 9 -15 9 14 1 43 -3 65 -7z m88 -18 c-7 -2 -21 -2 -30 0 -10 3 -4 5 12 5 17 0 24 -2 18 -5z m65 -10 c-10 -2 -26 -2 -35 0 -10 3 -2 5 17 5 19 0 27 -2 18 -5z m70 -10 c-10 -2 -26 -2 -35 0 -10 3 -2 5 17 5 19 0 27 -2 18 -5z m70 -10 c-10 -2 -26 -2 -35 0 -10 3 -2 5 17 5 19 0 27 -2 18 -5z m65 -10 c-7 -2 -21 -2 -30 0 -10 3 -4 5 12 5 17 0 24 -2 18 -5z m65 -10 c-10 -2 -26 -2 -35 0 -10 3 -2 5 17 5 19 0 27 -2 18 -5z m65 -10 c-7 -2 -21 -2 -30 0 -10 3 -4 5 12 5 17 0 24 -2 18 -5z m75 -10 c-10 -2 -26 -2 -35 0 -10 3 -2 5 17 5 19 0 27 -2 18 -5z m65 -10 c-7 -2 -21 -2 -30 0 -10 3 -4 5 12 5 17 0 24 -2 18 -5z m65 -10 c-10 -2 -26 -2 -35 0 -10 3 -2 5 17 5 19 0 27 -2 18 -5z m65 -10 c-7 -2 -21 -2 -30 0 -10 3 -4 5 12 5 17 0 24 -2 18 -5z m65 -10 c-10 -2 -26 -2 -35 0 -10 3 -2 5 17 5 19 0 27 -2 18 -5z m70 -10 c-10 -2 -26 -2 -35 0 -10 3 -2 5 17 5 19 0 27 -2 18 -5z m65 -10 c-7 -2 -21 -2 -30 0 -10 3 -4 5 12 5 17 0 24 -2 18 -5z m110 -8 c33 -7 61 -15 63 -17 4 -5 -127 2 -144 8 -16 5 -6 24 11 24 7 -1 38 -7 70 -15z m179 -57 c7 7 19 12 27 12 11 0 11 -4 -3 -19 -17 -18 -17 -20 1 -30 10 -6 13 -11 6 -11 -6 0 -15 5 -19 11 -4 8 -9 8 -17 0 -6 -6 -20 -11 -31 -11 -19 0 -19 0 -1 14 17 12 18 16 5 32 -14 18 -14 18 3 5 14 -11 21 -11 29 -3z"/>
 <path d="M300 1101 l0 -589 78 -11 c129 -20 311 -47 937 -141 330 -49 615 -92 633 -95 l32 -6 0 589 0 589 -167 26 c-511 80 -780 118 -800 114 -12 -2 -20 0 -17 4 3 5 -1 9 -8 9 -8 0 -117 16 -243 34 -339 51 -438 66 -442 66 -2 0 -3 -265 -3 -589z m661 437 c-5 -13 -17 -23 -27 -23 -28 0 -23 28 6 36 14 4 26 7 27 8 1 1 -1 -9 -6 -21z m559 -122 c0 -7 7 -19 15 -26 9 -7 13 -15 10 -18 -3 -3 -12 3 -19 14 -14 18 -15 18 -21 2 -4 -10 -16 -18 -28 -18 -20 0 -20 0 1 23 12 13 19 27 15 30 -3 4 1 7 10 7 10 0 17 -6 17 -14z m66 -43 c-10 -10 -19 5 -10 18 6 11 8 11 12 0 2 -7 1 -15 -2 -18z m44 7 c0 -5 -5 -10 -11 -10 -5 0 -7 5 -4 10 3 6 8 10 11 10 2 0 4 -4 4 -10z m-615 -39 c119 -32 149 -50 153 -93 3 -32 0 -37 -29 -47 -18 -6 -81 -11 -140 -11 l-109 0 0 -169 c0 -120 3 -170 12 -173 8 -3 9 -12 0 -36 -9 -28 -9 -32 6 -33 20 0 70 -59 51 -59 -7 0 -26 12 -41 27 -19 18 -28 22 -28 12 0 -8 6 -21 13 -28 10 -11 10 -13 0 -7 -10 6 -13 -11 -13 -70 0 -43 -3 -75 -6 -72 -3 3 -5 142 -5 307 1 231 -2 303 -12 305 -6 2 -52 14 -102 25 -120 29 -149 47 -153 93 -3 31 0 37 25 47 46 18 284 6 378 -18z m477 4 c-23 -7 -52 -11 -63 -8 -35 9 0 23 56 22 l50 0 -43 -14z m-109 -12 c-7 -2 -21 -2 -30 0 -10 3 -4 5 12 5 17 0 24 -2 18 -5z m-60 -10 c-7 -2 -21 -2 -30 0 -10 3 -4 5 12 5 17 0 24 -2 18 -5z m-70 -10 c-7 -2 -21 -2 -30 0 -10 3 -4 5 12 5 17 0 24 -2 18 -5z m-70 -10 c-7 -2 -21 -2 -30 0 -10 3 -4 5 12 5 17 0 24 -2 18 -5z m390 -33 c-18 -17 -38 -30 -45 -30 -7 0 3 14 22 30 46 39 65 39 23 0z m-90 -27 c-13 -2 -35 -2 -50 0 -16 2 -5 4 22 4 28 0 40 -2 28 -4z m448 -64 c-9 -23 -10 -23 -10 -2 -1 12 2 30 6 40 6 15 8 15 11 2 1 -8 -2 -26 -7 -40z m-708 34 c-7 -2 -19 -2 -25 0 -7 3 -2 5 12 5 14 0 19 -2 13 -5z m70 -10 c-7 -2 -21 -2 -30 0 -10 3 -4 5 12 5 17 0 24 -2 18 -5z m60 -10 c-7 -2 -19 -2 -25 0 -7 3 -2 5 12 5 14 0 19 -2 13 -5z m152 -17 l50 -14 -65 5 c-36 4 -76 10 -90 14 -49 14 52 9 105 -5z m-638 -28 c-3 -8 -6 -5 -6 6 -1 11 2 17 5 13 3 -3 4 -12 1 -19z m581 -10 c9 -9 15 -9 24 0 7 7 19 12 28 12 12 -1 11 -4 -5 -16 -20 -15 -20 -15 -1 -30 11 -8 15 -14 10 -14 -6 0 -15 5 -22 12 -9 9 -15 9 -24 0 -7 -7 -19 -12 -27 -12 -11 0 -11 4 3 19 17 18 17 20 -1 30 -10 6 -13 11 -7 11 5 0 15 -5 22 -12z m457 -27 c-21 -43 -29 -39 -8 4 9 19 18 33 21 31 2 -2 -4 -18 -13 -35z m-1048 -8 c-4 -3 -7 0 -7 7 0 7 3 10 7 7 3 -4 3 -10 0 -14z m689 -10 c-10 -10 -19 5 -10 18 6 11 8 11 12 0 2 -7 1 -15 -2 -18z m44 6 c0 -5 -4 -9 -10 -9 -5 0 -10 7 -10 16 0 8 5 12 10 9 6 -3 10 -10 10 -16z m187 -11 c2 -22 -15 -24 -23 -3 -4 8 -11 15 -16 15 -6 0 -8 -7 -4 -15 6 -17 -9 -21 -19 -5 -11 17 5 30 34 28 18 -1 27 -8 28 -20z m-930 -30 c-3 -8 -6 -5 -6 6 -1 11 2 17 5 13 3 -3 4 -12 1 -19z m-10 -45 c-4 -3 -7 0 -7 7 0 7 3 10 7 7 3 -4 3 -10 0 -14z m-10 -40 c-4 -3 -7 0 -7 7 0 7 3 10 7 7 3 -4 3 -10 0 -14z m-20 -100 c-4 -3 -7 0 -7 7 0 7 3 10 7 7 3 -4 3 -10 0 -14z m-2 -45 c-3 -13 -10 -38 -15 -56 -11 -45 -25 -56 -16 -13 3 18 6 46 6 62 0 20 5 29 16 29 12 0 15 -6 9 -22z m-83 -53 c16 -14 24 -25 18 -25 -6 0 -23 11 -38 25 -15 14 -23 25 -18 25 4 0 21 -11 38 -25z m258 -5 c0 -5 -7 -7 -15 -4 -8 4 -15 8 -15 10 0 2 7 4 15 4 8 0 15 -4 15 -10z m30 -36 c0 -8 -5 -12 -10 -9 -6 4 -8 11 -5 16 9 14 15 11 15 -7z m36 -11 c-10 -10 -19 5 -10 18 6 11 8 11 12 0 2 -7 1 -15 -2 -18z m-279 -25 c-3 -8 -6 -5 -6 6 -1 11 2 17 5 13 3 -3 4 -12 1 -19z m-10 -60 c-3 -7 -5 -2 -5 12 0 14 2 19 5 13 2 -7 2 -19 0 -25z m21 -43 c32 -9 21 -18 -12 -9 -15 3 -26 13 -26 23 0 10 3 12 8 5 4 -6 17 -15 30 -19z m240 -73 c4 -44 -15 -41 -20 3 -2 22 0 34 6 32 6 -2 12 -18 14 -35z m39 -5 c1 -15 -2 -27 -8 -27 -5 0 -9 3 -10 8 0 4 -2 17 -3 30 -2 12 2 21 8 19 6 -2 12 -16 13 -30z"/>
 </g>
<g id="layer105" fill="#fefefe" stroke="none">
 <path d="M0 920 l0 -920 1545 0 1545 0 0 920 0 920 -1545 0 -1545 0 0 -920z m2990 786 c-19 -7 -39 -9 -44 -4 -11 9 -1276 11 -1276 3 0 -3 8 -18 17 -33 16 -24 16 -25 1 -14 -11 9 -18 10 -23 2 -3 -5 -13 -10 -22 -10 -14 0 -14 3 2 20 10 11 15 23 11 28 -4 4 -115 8 -247 10 l-240 3 -60 -50 c-33 -28 -61 -53 -62 -57 -1 -4 201 -38 448 -75 248 -37 465 -70 483 -74 l32 -6 0 -606 0 -605 -32 5 c-18 4 -202 31 -408 62 -830 124 -1236 185 -1263 191 l-27 6 0 598 c0 329 4 601 8 604 5 3 170 -20 367 -49 l358 -55 31 24 c17 13 51 40 76 60 l45 36 930 -1 c762 0 924 -2 895 -13z m-1786 -20 c-4 -9 5 -15 25 -18 25 -4 31 -1 31 14 0 10 7 18 15 18 10 0 15 -11 15 -35 0 -24 -5 -35 -15 -35 -8 0 -15 5 -15 12 0 9 -3 9 -12 0 -7 -7 -26 -12 -42 -12 -29 0 -31 3 -31 35 0 26 4 35 17 35 11 0 15 -5 12 -14z m154 1 c9 -26 0 -38 -25 -35 -42 5 -37 46 5 43 9 0 18 -4 20 -8z m59 2 c16 -16 5 -39 -18 -39 -12 0 -19 7 -19 18 0 31 17 41 37 21z m69 -1 c5 -8 2 -9 -11 -4 -18 7 -18 6 0 -14 18 -20 18 -20 -13 -20 -18 0 -32 5 -32 11 0 5 6 7 13 3 10 -6 10 -4 0 7 -7 7 -13 17 -13 21 0 13 48 9 56 -4z m62 -6 c-26 -5 -22 -17 5 -17 18 0 23 5 19 18 -3 12 2 17 16 17 12 0 24 -5 28 -12 5 -8 2 -9 -11 -4 -18 7 -18 6 0 -14 18 -20 18 -20 -38 -20 -31 0 -59 5 -63 12 -10 15 24 38 44 30 15 -6 15 -7 0 -10z m212 8 c0 -5 -5 -10 -11 -10 -8 0 -8 -5 1 -15 11 -13 8 -15 -14 -15 -14 0 -26 5 -26 11 0 5 6 7 13 3 10 -6 10 -4 0 7 -19 20 -16 29 12 29 14 0 25 -4 25 -10z m51 -12 l2 -23 4 23 c2 12 10 22 17 22 9 0 12 -9 8 -25 -3 -20 -10 -25 -33 -25 -24 0 -29 4 -29 25 0 32 29 34 31 3z m112 -9 c-4 -15 -12 -19 -32 -17 -33 4 -34 31 -1 39 33 7 39 3 33 -22z m131 21 c52 -19 14 -68 -44 -55 -37 8 -45 30 -17 50 25 18 28 18 61 5z m97 0 c26 -15 24 -28 -6 -36 -14 -3 -25 -10 -25 -15 0 -5 -7 -9 -15 -9 -22 0 -20 57 3 63 9 3 18 5 20 6 2 0 12 -4 23 -9z m55 -7 c0 -10 5 -17 12 -15 6 1 12 -2 12 -7 0 -5 -11 -8 -25 -8 -20 0 -25 5 -25 23 0 14 6 24 14 24 8 0 13 -8 12 -17z m89 -9 c0 -13 -8 -20 -27 -22 -22 -3 -28 1 -28 16 0 24 5 29 32 27 15 -1 23 -8 23 -21z m71 14 c5 -8 1 -9 -12 -4 -15 6 -17 5 -6 -5 19 -20 15 -29 -13 -29 -14 0 -25 5 -25 11 0 5 6 7 13 3 10 -6 10 -4 0 7 -7 7 -13 17 -13 21 0 13 48 9 56 -4z m84 -14 c0 -28 -29 -34 -31 -6 -1 16 -2 16 -6 0 -5 -21 -33 -24 -33 -5 0 20 16 32 45 33 20 2 25 -3 25 -22z m94 11 c-5 -11 -2 -13 10 -9 9 3 16 10 16 15 0 5 9 9 20 9 26 0 25 -12 -2 -29 l-22 -14 24 -10 c14 -5 20 -11 13 -14 -6 -2 -24 4 -39 14 -26 17 -28 17 -21 0 5 -13 1 -17 -16 -17 -19 0 -22 6 -22 35 0 29 3 35 22 35 16 0 21 -4 17 -15z m131 -11 c0 -13 -8 -20 -27 -22 -22 -3 -28 1 -28 16 0 24 5 29 32 27 15 -1 23 -8 23 -21z m49 12 c-3 -8 -1 -17 5 -21 7 -3 11 2 11 14 0 12 5 21 10 21 6 0 10 -6 10 -14 0 -8 5 -18 12 -22 8 -5 9 0 6 14 -4 15 -2 22 8 22 8 0 14 -10 14 -25 0 -24 -3 -25 -50 -24 -45 2 -50 4 -50 26 0 14 6 23 15 23 8 0 12 -6 9 -14z m130 -7 c-17 -7 -17 -8 4 -8 13 -1 20 -5 17 -11 -9 -15 -41 -12 -54 4 -10 11 -8 16 5 24 10 6 24 7 33 4 12 -4 11 -7 -5 -13z m66 2 c0 -23 21 -22 47 1 17 15 19 14 36 -8 10 -13 14 -24 8 -24 -5 0 -12 6 -15 13 -5 10 -7 10 -12 0 -3 -8 -24 -13 -50 -13 -40 0 -44 2 -44 25 0 16 6 25 15 25 8 0 15 -9 15 -19z m-2785 -2 c-4 -5 1 -19 11 -30 19 -21 6 -27 -15 -6 -11 10 -14 10 -18 0 -3 -7 -14 -13 -25 -13 -20 0 -20 1 -4 19 10 11 15 25 11 30 -4 7 4 11 20 11 16 0 24 -4 20 -11z m62 -92 c8 -26 9 -43 3 -45 -6 -2 -10 -205 -10 -548 l0 -544 23 -5 c12 -2 128 -20 257 -39 452 -67 1186 -177 1275 -191 185 -29 309 -46 329 -44 26 3 136 -20 156 -32 19 -12 -133 -1 -175 12 -16 5 -226 39 -465 74 -239 36 -493 74 -565 85 -261 40 -801 119 -828 122 l-28 3 1 552 c0 420 -3 552 -12 555 -9 3 -9 15 2 51 15 54 20 53 37 -6z m2123 -1487 c0 -5 -4 -10 -9 -10 -6 0 -13 5 -16 10 -3 6 1 10 9 10 9 0 16 -4 16 -10z m51 -7 c-23 -15 -23 -17 -6 -30 11 -7 14 -13 9 -13 -6 0 -15 5 -21 11 -8 8 -13 8 -17 0 -4 -6 -17 -11 -29 -11 -21 0 -20 2 8 29 17 17 41 30 55 30 l24 1 -23 -17z"/>
 <path d="M310 1100 l0 -586 343 -52 c188 -28 540 -81 782 -117 242 -36 464 -69 493 -74 l52 -8 0 587 0 586 -182 28 c-101 15 -319 47 -484 72 -289 44 -303 45 -328 29 -14 -10 -24 -21 -21 -25 9 -14 -24 -32 -45 -25 -28 9 -20 29 12 33 14 2 33 11 42 21 17 19 63 10 -476 89 l-188 28 0 -586z m1214 316 c-3 -9 3 -20 15 -28 12 -7 21 -16 21 -20 0 -10 -78 -31 -125 -33 -22 -1 -95 -10 -162 -20 -113 -17 -120 -19 -110 -37 9 -13 26 -18 67 -20 l55 -2 -57 -3 c-56 -4 -76 -17 -40 -27 35 -10 234 -37 239 -33 2 3 28 -1 56 -9 92 -24 408 -67 419 -56 5 5 12 28 15 50 4 33 2 41 -13 45 -13 3 -11 5 9 6 18 1 27 -4 27 -14 0 -25 -31 -109 -48 -127 -16 -19 -62 -25 -62 -8 0 6 14 10 30 10 17 0 30 5 30 10 0 6 -5 10 -10 10 -16 0 -329 46 -523 76 -152 24 -172 25 -215 13 -27 -8 -89 -14 -145 -13 l-98 1 2 -204 2 -203 39 0 c21 0 38 -4 38 -9 0 -4 -12 -6 -27 -3 l-28 5 24 -27 24 -26 -41 0 -42 0 0 -67 0 -66 108 5 c66 3 92 2 67 -3 -22 -4 -102 -8 -178 -8 -106 -1 -139 2 -143 12 -3 8 5 57 16 111 12 53 18 105 15 116 -4 12 0 26 8 35 9 8 18 34 22 57 7 42 51 236 61 269 4 13 -6 18 -45 23 -71 9 -172 44 -198 69 -26 23 -30 59 -9 76 45 38 277 30 435 -15 l95 -27 140 22 c78 12 155 25 171 27 72 12 79 15 65 27 -10 9 -14 9 -17 0 -3 -7 -14 -13 -25 -13 -20 0 -20 1 -4 19 10 11 15 25 11 30 -4 7 4 11 19 11 18 0 24 -4 20 -14z m65 -45 c-15 -5 -22 6 -14 19 6 9 10 9 16 -1 5 -8 4 -15 -2 -18z m37 2 c-10 -10 -19 5 -10 18 6 11 8 11 12 0 2 -7 1 -15 -2 -18z m-77 -85 c11 -10 14 -10 18 0 3 6 14 12 26 12 20 0 20 0 1 -15 -19 -15 -19 -15 0 -30 26 -20 36 -19 36 3 1 16 1 16 14 0 10 -14 33 -18 122 -21 60 -2 -18 -3 -174 -1 -156 1 -286 5 -289 8 -7 7 90 11 165 7 65 -3 97 15 60 35 -15 9 -18 13 -7 14 8 0 21 -6 28 -12z m-99 -148 c0 -13 -11 -13 -30 0 -12 8 -11 10 8 10 12 0 22 -4 22 -10z m44 -12 c-16 -13 -30 -26 -32 -30 -2 -5 -13 -8 -25 -8 -19 0 -19 2 8 30 17 17 39 30 53 30 l25 0 -29 -22z m56 -23 c0 -8 -4 -15 -10 -15 -5 0 -10 7 -10 15 0 8 5 15 10 15 6 0 10 -7 10 -15z m40 0 c0 -8 -4 -15 -10 -15 -5 0 -10 7 -10 15 0 8 5 15 10 15 6 0 10 -7 10 -15z m-85 -5 c3 -5 -1 -10 -9 -10 -9 0 -16 5 -16 10 0 6 4 10 9 10 6 0 13 -4 16 -10z m278 4 c-7 -3 -9 -12 -6 -20 4 -10 -4 -14 -31 -14 -23 0 -36 5 -36 13 0 21 11 27 49 26 20 0 31 -3 24 -5z m-1023 -303 c0 -4 -12 -6 -27 -3 l-28 5 24 -27 c35 -38 3 -34 -34 4 l-29 30 47 0 c26 0 47 -4 47 -9z m250 -66 c0 -8 -4 -15 -10 -15 -5 0 -10 7 -10 15 0 8 5 15 10 15 6 0 10 -7 10 -15z m40 0 c0 -8 -4 -15 -10 -15 -5 0 -10 7 -10 15 0 8 5 15 10 15 6 0 10 -7 10 -15z m-22 -181 c35 -17 44 -57 16 -68 -29 -11 -54 12 -54 49 0 19 2 35 3 35 2 0 18 -7 35 -16z"/>
 <path d="M841 1020 c-18 -83 -30 -158 -27 -166 4 -9 -1 -28 -10 -41 -9 -14 -14 -33 -11 -44 3 -10 1 -19 -4 -21 -8 -3 -41 -140 -35 -145 1 -2 30 -6 64 -9 l60 -7 1 292 c0 160 -1 291 -2 291 -1 0 -17 -68 -36 -150z"/>
 <path d="M890 758 c0 -9 7 -19 16 -22 25 -10 27 -1 4 19 -17 15 -20 16 -20 3z"/>
 <path d="M1560 1250 c0 -5 5 -10 10 -10 6 0 10 5 10 10 0 6 -4 10 -10 10 -5 0 -10 -4 -10 -10z"/>
 <path d="M1740 1090 c0 -7 3 -10 7 -7 3 4 3 10 0 14 -4 3 -7 0 -7 -7z"/>
 <path d="M1020 530 c0 -5 5 -10 10 -10 6 0 10 5 10 10 0 6 -4 10 -10 10 -5 0 -10 -4 -10 -10z"/>
 <path d="M1020 500 c0 -5 5 -10 10 -10 6 0 10 5 10 10 0 6 -4 10 -10 10 -5 0 -10 -4 -10 -10z"/>
 <path d="M1200 1650 c0 -5 4 -10 9 -10 6 0 13 5 16 10 3 6 -1 10 -9 10 -9 0 -16 -4 -16 -10z"/>
 <path d="M1330 1670 c0 -7 3 -10 7 -7 3 4 3 10 0 14 -4 3 -7 0 -7 -7z"/>
 <path d="M2012 1663 c2 -10 10 -18 18 -18 8 0 16 8 18 18 2 12 -3 17 -18 17 -15 0 -20 -5 -18 -17z"/>
 <path d="M2120 1675 c0 -8 5 -15 10 -15 6 0 10 7 10 15 0 8 -4 15 -10 15 -5 0 -10 -7 -10 -15z"/>
 </g>

</svg>